<?xml version="1.0" encoding="UTF-8"?>
<!DOCTYPE svg PUBLIC "-//W3C//DTD SVG 1.1//EN" "http://www.w3.org/Graphics/SVG/1.1/DTD/svg11.dtd">
<!-- Creator: CorelDRAW 2017 -->
<svg xmlns="http://www.w3.org/2000/svg" xml:space="preserve" width="210mm" height="297mm" version="1.1" style="shape-rendering:geometricPrecision; text-rendering:geometricPrecision; image-rendering:optimizeQuality; fill-rule:evenodd; clip-rule:evenodd"
viewBox="0 0 21000 29700"
 xmlns:xlink="http://www.w3.org/1999/xlink">
 <defs>
  <style type="text/css">
   <![CDATA[
    .str0 {stroke:#00A3DE;stroke-width:20;stroke-miterlimit:22.9256}
    .fil2 {fill:none}
    .fil3 {fill:#FEFEFE}
    .fil1 {fill:#00A3DE}
    .fil0 {fill:#2F5E91}
   ]]>
  </style>
 </defs>
 <g id="Слой_x0020_1">
  <metadata id="CorelCorpID_0Corel-Layer"/>
  <g id="_967289392">
   <g>
    <path class="fil0" d="M18905.27 29620.86c-3113.93,-1126.86 -5589.31,-2378.12 -7426.15,-3753.82 -1902.12,1377.03 -4388.23,2596.16 -7458.3,3657.35 2985.01,-4369.76 4348.54,-9728.62 4194.37,-16078.86l972.96 0c335.68,994.51 826.33,1905.13 1471.92,2731.79 210.03,-218.69 397.14,-455.7 561.33,-711.01 -437.35,-623.82 -786.64,-1293.25 -1047.81,-2008.3l2615.3 -2.52c-261.17,715.03 -610.47,1384.48 -1047.81,2008.3 164.19,255.27 351.3,492.3 561.32,711.02 606.02,-753.18 1096.65,-1663.77 1471.92,-2731.79l972.91 1.94c-459.93,4815.7 926.09,10207.66 4158.04,16175.9zm-7746.24 -7705.54c-415.78,-419.95 -814.95,-948.02 -1197.49,-1584.16l1197.49 1584.16zm318.64 -6755.11c-363.82,-505.55 -605.43,-954.76 -725.16,-1348.03 296.5,0 593,-0.21 889.49,-2.51l-164.33 1350.54zm164.33 -1350.54l567.97 0c-121.63,393.94 -365.59,843.95 -732.3,1350.54l164.33 -1350.54zm-2578.59 9864.47c-395.02,-436.58 -698.51,-781.69 -910.59,-1035.31 -274.43,914.7 -482.32,1579.98 -623.7,1995.8 669.43,-345.1 1173.27,-642.85 1534.29,-960.49l0 0zm261.96 349.27c-607.06,403.31 -1280.63,798.33 -2020.78,1185.02 -249.48,702.71 -598.75,1496.85 -1047.83,2382.52 1476.07,-627.84 2927.23,-1446.97 4353.42,-2457.36 -486.48,-428.28 -914.76,-798.33 -1284.81,-1110.18l0 0zm636.17 -3692.25c-461.52,407.43 -898.1,781.64 -1309.77,1122.63 503.11,669.4 948.02,1197.49 1334.73,1584.18 457.33,-374.21 848.17,-748.43 1172.53,-1122.65l-1197.49 -1584.16zm3039.4 -2.52c461.52,407.43 898.1,781.65 1309.76,1122.63 -503.1,669.41 -948.01,1197.5 -1334.73,1584.19 -457.32,-374.22 -848.16,-748.44 -1172.52,-1122.65l1197.49 -1584.17zm636.17 3692.26c607.06,403.31 1280.63,798.33 2020.78,1185.02 249.47,702.7 598.74,1496.85 1047.83,2382.52 -1476.07,-627.84 -2927.23,-1446.98 -4353.42,-2457.37 486.48,-428.27 914.76,-798.33 1284.81,-1110.17l0 0zm261.95 -349.27c395.03,-436.59 698.52,-781.69 910.6,-1035.32 274.43,914.7 482.32,1579.98 623.7,1995.81 -669.43,-345.11 -1173.27,-642.85 -1534.3,-960.49l0 0zm-2417.86 -4828.99c484.94,453.14 887.61,857 1207.87,1211.53 -362.59,629.72 -765.96,1159.1 -1210.39,1588.33l2.52 -2799.86zm0 0.02c-484.92,454.11 -887.55,858.8 -1207.8,1214.03 360.75,628.81 762.41,1157.34 1205.28,1585.81l2.52 -2799.84zm2.34 -3103.28c157.64,212.69 349.89,451.75 576.64,717.1 -177.81,322.95 -371.6,595.3 -581.48,817.17l4.84 -1534.27zm0 0c-158.96,213.41 -352.71,453.29 -581.24,719.62 177.15,323.29 370.35,595.96 579.68,818.12l1.56 -1537.74zm1294.37 1518.03c374.52,352.45 740.64,667.4 1098.47,944.83 -137.3,348.32 -349.5,692.49 -636.59,1032.44 -409.85,-329.53 -790.58,-717.49 -1142.17,-1163.84 272.52,-296.18 499.29,-567.33 680.29,-813.43l0 0zm986.14 -1339.06c43.66,546.44 83.19,1142.97 118.59,1789.56 -260.05,-206.47 -540.93,-475.53 -842.58,-807.17 224.69,-273.24 466.01,-600.69 723.99,-982.39l0 0zm-243.41 3641.71c189.33,-262.78 366.16,-508.92 530.5,-738.35 112.35,609.02 191.4,1101.27 237.17,1476.72 -276.68,-237.77 -532.59,-483.91 -767.67,-738.37l0 0zm-1717.19 2352.75c415.78,-419.95 814.94,-948.02 1197.49,-1584.17l-1197.49 1584.17zm-1618.88 -4652.88c-374.52,352.44 -740.64,667.4 -1098.47,944.83 137.3,348.31 349.5,692.49 636.59,1032.43 409.84,-329.52 790.57,-717.48 1142.17,-1163.83 -272.52,-296.19 -499.3,-567.33 -680.29,-813.43l0 0zm-986.14 -1339.06c-43.66,546.44 -83.2,1142.97 -118.59,1789.56 260.05,-206.48 540.93,-475.53 842.58,-807.17 -224.7,-273.24 -466.01,-600.69 -723.99,-982.39l0 0zm2277.14 6321.78c505.43,534.47 897.34,890.13 1176.1,1067.23 -330.64,376.63 -719.66,753.45 -1167.07,1130.5l-9.03 -2197.73zm0 0c-500.18,535.65 -888.33,892.13 -1164.76,1069.75 332.67,375.87 723.93,751.84 1173.79,1127.98l-9.03 -2197.73zm-2033.73 -2680.08c-189.33,-262.77 -366.16,-508.91 -530.5,-738.35 -112.35,609.03 -191.4,1101.28 -237.18,1476.72 276.69,-237.76 532.6,-483.9 767.68,-738.37l0 0zm2015.15 -9221.77c-957.79,2.05 -1383.15,764.82 -2530.11,491.96 -436.78,-103.9 -951.76,-449.95 -1441.75,-444.29 -500.21,5.78 -880.26,290.69 -1365.71,585.58 780.32,536.32 1389.26,1239.06 1842.06,2069.78 2586.25,4.15 4939.67,0.02 7060.24,-12.45 475.82,-991.85 1081.08,-1679.86 1815.69,-2063.97 -485.45,-294.89 -865.5,-579.78 -1365.7,-585.57 -490.02,-5.67 -1000.07,337.57 -1441.75,444.28 -441.69,106.7 -566.11,113.47 -1085.98,0 -519.86,-113.47 -1026.07,-486.29 -1486.99,-485.32l0 0zm39.07 -3392.95c460.92,1 924.27,378.49 1444.14,491.96 519.87,113.47 644.29,106.71 1085.97,0 441.68,-106.7 951.74,-449.95 1441.75,-444.28 500.21,5.79 880.26,290.68 1365.71,585.57 -474.54,-1277.24 -1167.92,-2266.29 -2086.34,-2982.09l-6536.33 0c-921.27,713.68 -1617.47,1700.66 -2095.32,2975.46 485.44,-294.9 865.5,-579.79 1365.7,-585.58 490.01,-5.67 1000.07,337.58 1441.75,444.28 441.69,106.71 566.11,113.47 1085.97,0 519.87,-113.47 1026.08,-486.31 1487,-485.32l0 0zm-353.35 -3662.85l-2203.19 0 0 1026.18 5080.41 0 0 -1026.18 -2246.86 0 -343.27 -3297.57 -287.09 3297.57 0 0z"/>
   </g>
   <g>
    <path class="fil1" d="M17135.24 10006.39c-123.79,0 -59.85,-186.07 -57.89,-268.55 125.38,98.51 157.64,-358.38 157.72,-359.48 19.43,-248.25 39.58,-655.09 39.58,-1218.32l419.4 0 0 1818.38 -163.03 0 0 -1616.96 -163.05 0c-0.21,162.86 17.7,1644.93 -232.73,1644.93l0 0zm-595.43 -713.36l220.92 0 -105.14 -856.03 -2.37 0 -113.41 856.03 0 0zm-192.56 685.39l255.19 -1818.38 180.74 0 238.65 1818.38 -172.5 0 -66.15 -509.15 -266.98 0 -69.71 509.15 -99.24 0 0 0zm-705.31 0l0 -1818.38 163.03 0 0 794.51 265.82 0 0 -794.51 163.05 0 0 1818.38 -163.05 0 0 -828.06 -265.82 0 0 828.06 -163.03 0 0 0zm-594.24 -685.39l220.91 0 -105.14 -856.03 -2.36 0 -113.41 856.03 0 0zm-192.56 685.39l255.18 -1818.38 180.75 0 238.65 1818.38 -172.5 0 -66.15 -509.15 -266.99 0 -69.7 509.15 -99.24 0 0 0zm-671.06 0l0 -1818.38 163.03 0 0 842.05 69.71 -120.3 225.65 -721.75 113.42 0 -232.73 710.57 287.07 1107.81 -206.75 0 -205.57 -816.87 -50.8 83.93 0 732.94 -163.03 0 0 0zm-484.37 -167.85c245.95,0 242.53,-1477.08 0,-1477.08 -238.97,0 -242.41,1477.08 0,1477.08l0 0zm0 198.61c-486.5,0 -484.81,-1877.11 0,-1877.11 489,0 490.71,1877.11 0,1877.11l0 0zm-675.77 -232.18l0 -1415.54 -184.29 0c-2.05,468.85 -1.42,953.05 -89.79,1415.54l274.08 0 0 0zm-450.11 0l79.15 0c105.63,-523.99 90.96,-1085.63 90.96,-1616.96l443.03 0 0 1616.96 95.69 0 -28.35 690.99 -92.14 0 -26 -489.57 -420.58 0 -47.26 489.57 -81.5 0 -13 -690.99 0 0zm-420.59 33.57c245.95,0 242.53,-1477.08 0,-1477.08 -238.92,0 -242.43,1477.08 0,1477.08l0 0zm0 198.61c-486.5,0 -484.81,-1877.11 0,-1877.11 489.02,0 490.72,1877.11 0,1877.11l0 0zm-734.84 -212.6c192,0 172.67,-660.21 31.91,-660.21l-105.16 0 0 660.21 73.25 0 0 0zm23.62 -828.06c88.92,0 197.85,-626.63 -96.87,-626.63l0 626.63 96.87 0 0 0zm-259.9 -808.48c121.08,0 298.06,-29.17 385.72,65.75 167.38,181.24 160,612.54 5.33,804.28 239.66,179.26 204.46,948.35 -151.23,948.35l-239.82 0 0 -1818.38 0 0zm-435.95 1636.54c192.01,0 172.69,-660.21 31.9,-660.21l-105.14 0 0 660.21 73.24 0 0 0zm23.63 -828.06c88.88,0 197.83,-626.63 -96.87,-626.63l0 626.63 96.87 0 0 0zm-259.92 -808.48c121.1,0 298.04,-29.17 385.74,65.75 167.43,181.28 159.96,612.45 5.33,804.28 239.65,179.24 204.44,948.35 -151.23,948.35l-239.84 0 0 -1818.38 0 0zm-153.58 -229.39c-106.02,0 -108.2,-388.85 0,-388.85 107.87,0 105.25,388.85 0,388.85l0 0zm-219.73 0c-105.94,0 -108.14,-388.85 0,-388.85 107.85,0 105.25,388.85 0,388.85l0 0zm27.17 2047.77l0 -1818.38 163.03 0 0 1818.38 -163.03 0 0 0zm-594.24 -685.39l220.91 0 -105.14 -856.03 -2.37 0 -113.4 856.03 0 0zm-192.59 685.39l255.21 -1818.38 180.74 0 238.66 1818.38 -172.5 0 -66.16 -509.15 -267 0 -69.71 509.15 -99.24 0 0 0zm-672.22 27.97c-123.78,0 -59.85,-186.07 -57.88,-268.55 125.35,98.51 157.63,-358.4 157.72,-359.48 19.43,-248.23 39.58,-655.09 39.58,-1218.32l419.39 0 0 1818.38 -163.04 0 0 -1616.96 -163.03 0c-0.21,162.86 17.69,1644.93 -232.74,1644.93l0 0zm-485.55 -195.82c245.95,0 242.52,-1477.08 0,-1477.08 -238.93,0 -242.44,1477.08 0,1477.08l0 0zm0 198.61c-486.5,0 -484.81,-1877.11 0,-1877.11 489,0 490.71,1877.11 0,1877.11l0 0zm-1038.46 -30.76l0 -1818.38 163.03 0 0 842.05 69.7 -120.3 225.65 -721.75 113.41 0 -232.73 710.57 287.09 1107.81 -206.75 0 -205.57 -816.87 -50.8 83.93 0 732.94 -163.03 0 0 0zm-798.65 0l0 -1818.38 163.03 0 -8.27 1387.57 2.37 0 308.36 -1387.57 151.21 0 0 1818.38 -163.03 0 7.08 -1376.36 -1.18 0 -305.97 1376.36 -153.6 0 0 0zm-1011.27 0l9.45 -1818.38 197.3 0 215.01 1340.02 4.72 0 211.46 -1340.02 183.13 0 8.27 1818.38 -159.5 0 -8.26 -1376.36 -3.53 0 -213.86 1376.36 -121.67 0 -213.83 -1376.36 -3.55 0 -3.56 1376.36 -101.58 0z"/>
    <path id="1" class="fil2 str0" d="M17135.24 10006.39c-123.79,0 -59.85,-186.07 -57.89,-268.55 125.38,98.51 157.64,-358.38 157.72,-359.48 19.43,-248.25 39.58,-655.09 39.58,-1218.32l419.4 0 0 1818.38 -163.03 0 0 -1616.96 -163.05 0c-0.21,162.86 17.7,1644.93 -232.73,1644.93m-595.43 -713.36l220.92 0 -105.14 -856.03 -2.37 0 -113.41 856.03m-192.56 685.39l255.19 -1818.38 180.74 0 238.65 1818.38 -172.5 0 -66.15 -509.15 -266.98 0 -69.71 509.15 -99.24 0m-705.31 0l0 -1818.38 163.03 0 0 794.51 265.82 0 0 -794.51 163.05 0 0 1818.38 -163.05 0 0 -828.06 -265.82 0 0 828.06 -163.03 0m-594.24 -685.39l220.91 0 -105.14 -856.03 -2.36 0 -113.41 856.03m-192.56 685.39l255.18 -1818.38 180.75 0 238.65 1818.38 -172.5 0 -66.15 -509.15 -266.99 0 -69.7 509.15 -99.24 0m-671.06 0l0 -1818.38 163.03 0 0 842.05 69.71 -120.3 225.65 -721.75 113.42 0 -232.73 710.57 287.07 1107.81 -206.75 0 -205.57 -816.87 -50.8 83.93 0 732.94 -163.03 0m-484.37 -167.85c245.95,0 242.53,-1477.08 0,-1477.08 -238.97,0 -242.41,1477.08 0,1477.08m0 198.61c-486.5,0 -484.81,-1877.11 0,-1877.11 489,0 490.71,1877.11 0,1877.11m-675.77 -232.18l0 -1415.54 -184.29 0c-2.05,468.85 -1.42,953.05 -89.79,1415.54l274.08 0m-450.11 0l79.15 0c105.63,-523.99 90.96,-1085.63 90.96,-1616.96l443.03 0 0 1616.96 95.69 0 -28.35 690.99 -92.14 0 -26 -489.57 -420.58 0 -47.26 489.57 -81.5 0 -13 -690.99m-420.59 33.57c245.95,0 242.53,-1477.08 0,-1477.08 -238.92,0 -242.43,1477.08 0,1477.08m0 198.61c-486.5,0 -484.81,-1877.11 0,-1877.11 489.02,0 490.72,1877.11 0,1877.11m-734.84 -212.6c192,0 172.67,-660.21 31.91,-660.21l-105.16 0 0 660.21 73.25 0m23.62 -828.06c88.92,0 197.85,-626.63 -96.87,-626.63l0 626.63 96.87 0m-259.9 -808.48c121.08,0 298.06,-29.17 385.72,65.75 167.38,181.24 160,612.54 5.33,804.28 239.66,179.26 204.46,948.35 -151.23,948.35l-239.82 0 0 -1818.38m-435.95 1636.54c192.01,0 172.69,-660.21 31.9,-660.21l-105.14 0 0 660.21 73.24 0m23.63 -828.06c88.88,0 197.83,-626.63 -96.87,-626.63l0 626.63 96.87 0m-259.92 -808.48c121.1,0 298.04,-29.17 385.74,65.75 167.43,181.28 159.96,612.45 5.33,804.28 239.65,179.24 204.44,948.35 -151.23,948.35l-239.84 0 0 -1818.38m-153.58 -229.39c-106.02,0 -108.2,-388.85 0,-388.85 107.87,0 105.25,388.85 0,388.85m-219.73 0c-105.94,0 -108.14,-388.85 0,-388.85 107.85,0 105.25,388.85 0,388.85m27.17 2047.77l0 -1818.38 163.03 0 0 1818.38 -163.03 0m-594.24 -685.39l220.91 0 -105.14 -856.03 -2.37 0 -113.4 856.03m-192.59 685.39l255.21 -1818.38 180.74 0 238.66 1818.38 -172.5 0 -66.16 -509.15 -267 0 -69.71 509.15 -99.24 0m-672.22 27.97c-123.78,0 -59.85,-186.07 -57.88,-268.55 125.35,98.51 157.63,-358.4 157.72,-359.48 19.43,-248.23 39.58,-655.09 39.58,-1218.32l419.39 0 0 1818.38 -163.04 0 0 -1616.96 -163.03 0c-0.21,162.86 17.69,1644.93 -232.74,1644.93m-485.55 -195.82c245.95,0 242.52,-1477.08 0,-1477.08 -238.93,0 -242.44,1477.08 0,1477.08m0 198.61c-486.5,0 -484.81,-1877.11 0,-1877.11 489,0 490.71,1877.11 0,1877.11m-1038.46 -30.76l0 -1818.38 163.03 0 0 842.05 69.7 -120.3 225.65 -721.75 113.41 0 -232.73 710.57 287.09 1107.81 -206.75 0 -205.57 -816.87 -50.8 83.93 0 732.94 -163.03 0m-798.65 0l0 -1818.38 163.03 0 -8.27 1387.57 2.37 0 308.36 -1387.57 151.21 0 0 1818.38 -163.03 0 7.08 -1376.36 -1.18 0 -305.97 1376.36 -153.6 0m-1011.27 0l9.45 -1818.38 197.3 0 215.01 1340.02 4.72 0 211.46 -1340.02 183.13 0 8.27 1818.38 -159.5 0 -8.26 -1376.36 -3.53 0 -213.86 1376.36 -121.67 0 -213.83 -1376.36 -3.55 0 -3.56 1376.36 -101.58 0z"/>
   </g>
   <g>
    <path class="fil3" d="M7161.9 6471.75l75.9 0 0 -75.92 -75.9 0 0 75.92zm-303.51 -75.92l0 75.92 75.88 0 0 -75.92 -75.88 0zm455.29 -75.92l-75.88 0 0 75.92 75.88 0 0 -75.92zm-531.17 0l0 75.92 75.88 0 0 -75.92 -75.88 0zm303.51 75.92l0 -75.92 75.88 0 0 -75.92 -75.88 0 0 -75.95 -75.88 0 0 75.95 -75.87 0 0 75.92 75.87 0 0 75.92 75.88 0zm227.6 151.78l75.88 0 0 -75.9 -75.88 0 0 75.9zm-606.95 0l75.88 0 0 -75.9 -75.88 0 0 75.9zm1138.42 0.08l75.9 0 0 -75.88 -75.9 0 0 75.88zm-75.88 -75.94l-75.81 0 0 -75.86 75.81 0 0 75.86zm-75.88 -75.92l-75.81 0 0 -75.88 75.81 0 0 75.88zm151.76 -75.88l0 -75.92 -75.88 0 0 -75.9 -75.88 0 0 -75.95 -75.88 0 0 75.95 0 75.9 0 75.88 -75.81 0 -75.9 0 -75.88 0 0 75.92 75.88 0 0 75.92 75.9 0 0 75.94 75.88 0 75.88 0 75.88 0 0 -75.88 75.81 0 0 -75.92 0 -75.94zm303.48 75.88l-75.82 0 0 -75.88 75.82 0 0 75.88zm-75.88 75.92l-75.82 0 0 -75.86 75.82 0 0 75.86zm227.66 -151.84l-75.88 0 -75.84 0 0 -75.88 0 -75.9 0 -75.95 -75.88 0 0 75.95 -75.88 0 0 75.9 -75.88 0 0 75.92 0 75.94 0 75.92 75.82 0 0 75.88 75.88 0 75.88 0 75.9 0 0 -75.94 75.88 0 0 -75.92 75.88 0 0 -75.92 -75.88 0zm-1366.08 227.78l75.52 0 0 -70.23 0.35 0 0 -5.71 -75.87 0 0 75.94zm151.75 -70.23l0 70.11 0 0.12 75.88 0 0 -75.94 -75.88 0 0 5.71zm1745.8 -5.71l75.88 0 0 -75.92 -75.88 0 0 75.92zm-303.54 -75.92l0 75.92 75.9 0 0 -75.92 -75.9 0zm455.3 -75.92l-75.88 0 0 75.92 75.88 0 0 -75.92zm-531.18 0l0 75.92 75.88 0 0 -75.92 -75.88 0zm303.54 75.92l0 -75.92 75.88 0 0 -75.92 -75.88 0 0 -75.95 -75.88 0 0 75.95 -75.88 0 0 75.92 75.88 0 0 75.92 75.88 0zm227.6 151.78l75.88 0 0 -75.9 -75.88 0 0 75.9zm-606.95 0l75.88 0 0 -75.9 -75.88 0 0 75.9zm1138.4 0.08l75.9 0 0 -75.88 -75.9 0 0 75.88zm-75.86 -75.94l-75.83 0 0 -75.86 75.83 0 0 75.86zm-75.88 -75.92l-75.83 0 0 -75.88 75.83 0 0 75.88zm151.74 -75.88l0 -75.92 -75.86 0 0 -75.9 -75.88 0 0 -75.95 -75.9 0 0 75.95 0 75.9 0 75.88 -75.81 0 -75.88 0 -75.88 0 0 75.92 75.88 0 0 75.92 75.88 0 0 75.94 75.88 0 75.88 0 75.9 0 0 -75.88 75.79 0 0 -75.92 0 -75.94zm303.5 75.88l-75.82 0 0 -75.88 75.82 0 0 75.88zm-75.88 75.92l-75.84 0 0 -75.86 75.84 0 0 75.86zm227.64 -151.84l-75.9 0 -75.8 0 0 -75.88 0 -75.9 0 -75.95 -75.88 0 0 75.95 -75.9 0 0 75.9 -75.88 0 0 75.92 0 75.94 0 75.92 75.84 0 0 75.88 75.88 0 75.88 0 75.86 0 0 -75.94 75.9 0 0 -75.92 75.88 0 0 -75.92 -75.88 0zm-1366.07 227.78l75.52 0 0 -70.23 0.36 0 0 -5.71 -75.88 0 0 75.94zm151.76 -70.23l0 70.11 0 0.12 75.88 0 0 -75.94 -75.88 0 0 5.71zm1745.78 -5.71l75.9 0 0 -75.92 -75.9 0 0 75.92zm-303.52 -75.92l0 75.92 75.88 0 0 -75.92 -75.88 0zm455.3 -75.92l-75.88 0 0 75.92 75.88 0 0 -75.92zm-531.18 0l0 75.92 75.88 0 0 -75.92 -75.88 0zm303.52 75.92l0 -75.92 75.88 0 0 -75.92 -75.88 0 0 -75.95 -75.86 0 0 75.95 -75.9 0 0 75.92 75.9 0 0 75.92 75.86 0zm227.6 151.78l75.9 0 0 -75.9 -75.9 0 0 75.9zm-606.95 0l75.87 0 0 -75.9 -75.87 0 0 75.9zm1138.44 0.08l75.86 0 0 -75.88 -75.86 0 0 75.88zm-75.9 -75.94l-75.82 0 0 -75.86 75.82 0 0 75.86zm-75.88 -75.92l-75.84 0 0 -75.88 75.84 0 0 75.88zm151.78 -75.88l0 -75.92 -75.9 0 0 -75.9 -75.88 0 0 -75.95 -75.88 0 0 75.95 0 75.9 0 75.88 -75.84 0 -75.85 0 -75.9 0 0 75.92 75.9 0 0 75.92 75.85 0 0 75.94 75.88 0 75.9 0 75.88 0 0 -75.88 75.84 0 0 -75.92 0 -75.94zm303.48 75.88l-75.84 0 0 -75.88 75.84 0 0 75.88zm-75.9 75.92l-75.84 0 0 -75.86 75.84 0 0 75.86zm227.63 -151.84l-75.85 0 -75.84 0 0 -75.88 0 -75.9 0 -75.95 -75.88 0 0 75.95 -75.9 0 0 75.9 -75.88 0 0 75.92 0 75.94 0 75.92 75.84 0 0 75.88 75.88 0 75.9 0 75.88 0 0 -75.94 75.85 0 0 -75.92 75.88 0 0 -75.92 -75.88 0zm-1366.06 227.78l75.52 0 0 -70.23 0.38 0 0 -5.71 -75.9 0 0 75.94zm151.76 -70.23l0 70.11 0 0.12 75.88 0 0 -75.94 -75.88 0 0 5.71zm1745.8 -5.71l75.88 0 0 -75.92 -75.88 0 0 75.92zm-303.54 -75.92l0 75.92 75.9 0 0 -75.92 -75.9 0zm455.3 -75.92l-75.88 0 0 75.92 75.88 0 0 -75.92zm-531.18 0l0 75.92 75.88 0 0 -75.92 -75.88 0zm303.52 75.92l0 -75.92 75.9 0 0 -75.92 -75.9 0 0 -75.95 -75.86 0 0 75.95 -75.88 0 0 75.92 75.88 0 0 75.92 75.86 0zm227.61 151.78l75.88 0 0 -75.9 -75.88 0 0 75.9zm-606.95 0l75.86 0 0 -75.9 -75.86 0 0 75.9zm1138.43 0.08l75.9 0 0 -75.88 -75.9 0 0 75.88zm-75.88 -75.94l-75.84 0 0 -75.86 75.84 0 0 75.86zm-75.9 -75.92l-75.8 0 0 -75.88 75.8 0 0 75.88zm151.78 -75.88l0 -75.92 -75.88 0 0 -75.9 -75.9 0 0 -75.95 -75.88 0 0 75.95 0 75.9 0 75.88 -75.82 0 -75.88 0 -75.88 0 0 75.92 75.88 0 0 75.92 75.88 0 0 75.94 75.9 0 75.86 0 75.88 0 0 -75.88 75.84 0 0 -75.92 0 -75.94zm303.47 75.88l-75.83 0 0 -75.88 75.83 0 0 75.88zm-75.88 75.92l-75.81 0 0 -75.86 75.81 0 0 75.86zm227.66 -151.84l-75.9 0 -75.83 0 0 -75.88 0 -75.9 0 -75.95 -75.88 0 0 75.95 -75.86 0 0 75.9 -75.88 0 0 75.92 0 75.94 0 75.92 75.81 0 0 75.88 75.88 0 75.88 0 75.88 0 0 -75.94 75.9 0 0 -75.92 75.86 0 0 -75.92 -75.86 0zm-1366.08 227.78l75.54 0 0 -70.23 0.34 0 0 -5.71 -75.88 0 0 75.94zm151.74 -70.23l0 70.11 0 0.12 75.9 0 0 -75.94 -75.9 0 0 5.71zm1745.82 -5.71l75.86 0 0 -75.92 -75.86 0 0 75.92zm-303.56 -75.92l0 75.92 75.9 0 0 -75.92 -75.9 0zm455.32 -75.92l-75.9 0 0 75.92 75.9 0 0 -75.92zm-531.18 0l0 75.92 75.86 0 0 -75.92 -75.86 0zm303.54 75.92l0 -75.92 75.88 0 0 -75.92 -75.88 0 0 -75.95 -75.9 0 0 75.95 -75.88 0 0 75.92 75.88 0 0 75.92 75.9 0zm227.57 151.78l75.88 0 0 -75.9 -75.88 0 0 75.9zm-606.93 0l75.88 0 0 -75.9 -75.88 0 0 75.9zm1138.43 0.08l75.88 0 0 -75.88 -75.88 0 0 75.88zm-75.9 -75.94l-75.84 0 0 -75.86 75.84 0 0 75.86zm-75.88 -75.92l-75.84 0 0 -75.88 75.84 0 0 75.88zm151.78 -75.88l0 -75.92 -75.9 0 0 -75.9 -75.88 0 0 -75.95 -75.9 0 0 75.95 0 75.9 0 75.88 -75.8 0 -75.9 0 -75.88 0 0 75.92 75.88 0 0 75.92 75.9 0 0 75.94 75.86 0 75.88 0 75.9 0 0 -75.88 75.84 0 0 -75.92 0 -75.94zm303.45 75.88l-75.84 0 0 -75.88 75.84 0 0 75.88zm-75.88 75.92l-75.84 0 0 -75.86 75.84 0 0 75.86zm227.66 -151.84l-75.88 0 -75.84 0 0 -75.88 0 -75.9 0 -75.95 -75.9 0 0 75.95 -75.88 0 0 75.9 -75.85 0 0 75.92 0 75.94 0 75.92 75.81 0 0 75.88 75.88 0 75.88 0 75.9 0 0 -75.94 75.88 0 0 -75.92 75.88 0 0 -75.92 -75.88 0zm-1366.08 227.78l75.54 0 0 -70.23 0.34 0 0 -5.71 -75.88 0 0 75.94zm151.78 -70.23l0 70.11 0 0.12 75.88 0 0 -75.94 -75.88 0 0 5.71zm1745.77 -5.71l75.86 0 0 -75.92 -75.86 0 0 75.92zm-303.53 -75.92l0 75.92 75.88 0 0 -75.92 -75.88 0zm455.29 -75.92l-75.9 0 0 75.92 75.9 0 0 -75.92zm-531.15 0l0 75.92 75.86 0 0 -75.92 -75.86 0zm303.52 75.92l0 -75.92 75.87 0 0 -75.92 -75.87 0 0 -75.95 -75.88 0 0 75.95 -75.9 0 0 75.92 75.9 0 0 75.92 75.88 0zm227.57 151.78l75.9 0 0 -75.9 -75.9 0 0 75.9zm-606.93 0l75.88 0 0 -75.9 -75.88 0 0 75.9zm1138.42 0.08l75.88 0 0 -75.88 -75.88 0 0 75.88zm-75.9 -75.94l-75.79 0 0 -75.86 75.79 0 0 75.86zm-75.85 -75.92l-75.84 0 0 -75.88 75.84 0 0 75.88zm151.75 -75.88l0 -75.92 -75.9 0 0 -75.9 -75.85 0 0 -75.95 -75.88 0 0 75.95 0 75.9 0 75.88 -75.84 0 -75.88 0 -75.9 0 0 75.92 75.9 0 0 75.92 75.88 0 0 75.94 75.88 0 75.9 0 75.86 0 0 -75.88 75.83 0 0 -75.92 0 -75.94zm-910.84 227.74l75.54 0 0 -70.23 0.36 0 0 -5.71 -75.9 0 0 75.94zm151.78 -70.23l0 70.11 0 0.12 75.87 0 0 -75.94 -75.87 0 0 5.71zm-8653.07 -276.56l0 43.23 75.88 0 0 -75.94 75.88 0 0 -75.9 75.87 0 0 -75.92 0 -75.95 0 -75.9 0 0c-88.86,123.12 -164.74,224.87 -227.63,336.38zm379.39 -336.33l75.84 0 0 75.85 -75.84 0 0 -75.85zm75.9 75.92l75.82 0 0 75.88 -75.82 0 0 -75.88zm-75.94 -75.97l-75.84 0 0 75.9 0 75.95 0 75.92 75.88 0 0 75.9 75.9 0 0 75.94 75.88 0 0 -75.94 0 -75.9 0 -75.86 75.82 0 75.88 0 75.9 0 0 -75.94 -75.9 0 0 -75.92 -75.88 0 0 -75.95 -75.88 0 -75.88 0 -75.88 0 0 75.9zm0 -151.86l75.88 0.06 75.88 0 75.88 0 0 -75.92 75.88 0 0 -75.94 75.9 0 0 -75.92 -75.9 0 -75.88 0 -75.88 0.06 0 75.86 -75.88 0.06 0 75.88 -75.84 0 -0.04 75.86zm910.89 227.83l-75.88 0 0 -75.92 75.88 0 0 75.92zm-379.42 0l0 -75.92 75.88 0 0 75.92 -75.88 0zm455.3 75.94l-75.88 0 0 -75.94 75.88 0 0 75.94zm-531.18 0l0 -75.94 75.88 0 0 75.94 -75.88 0zm227.64 -75.94l75.9 0 0 75.94 75.88 0 0 75.9 -75.88 0 0 75.94 -75.9 0 0 -75.94 -75.88 0 0 -75.9 75.88 0 0 -75.94zm75.9 -379.53l-75.9 0 0 -75.92 -75.88 0 0 -75.9 75.88 0 0 -75.94 75.9 0 0 75.94 75.88 0 0 75.9 -75.88 0 0 75.92zm303.46 227.75l0 75.92 -75.88 0 0 -75.92 -75.88 0 0 -75.94 75.88 0 0 -75.93 75.88 0 0 75.93 75.9 0 0 75.94 -75.9 0zm-606.93 -151.87l0 75.93 75.88 0 0 75.94 -75.88 0 0 75.92 -75.88 0 0 -75.92 -75.9 0 0 -75.94 75.9 0 0 -75.93 75.88 0zm75.81 -75.88l75.88 0 0 75.95 -75.88 0 0 -75.95zm227.66 151.87l0 75.84 75.88 0 0 75.9 -75.88 0 0 -75.8 -75.9 0 0 75.8 -75.88 0 0 -75.9 75.88 0 0 -75.84 -75.88 0 0 -75.92 75.88 0 0 75.81 75.9 0 0 -75.81 75.88 0 0 75.92 -75.88 0zm75.88 -75.92l0 -75.95 75.88 0 0 75.95 -75.88 0zm-379.42 -151.87l75.88 0 0 75.92 -75.88 0 0 -75.92zm455.3 0l75.88 0 0 75.92 -75.88 0 0 -75.92zm683.19 303.56l0 75.92 -75.88 0 0 -75.92 75.88 0zm-151.76 151.82l-75.83 0 0 -75.85 75.83 0 0 75.85zm-75.9 75.95l-75.81 0 0 -75.88 75.81 0 0 75.88zm151.78 -75.95l0 -75.9 -75.83 0 0 -75.9 -75.88 0 -75.88 0 -75.88 0 0 75.95 -75.88 0 0 75.92 -75.88 0 0 75.94 75.88 0 75.88 0 75.81 0 0 75.86 0 75.9 0 75.94 75.88 0 0 -75.94 75.9 0 0 -75.9 75.88 0 0 -75.92 0 -75.95zm151.76 -75.85l75.82 0 0 75.85 -75.82 0 0 -75.85zm75.88 75.92l75.84 0 0 75.88 -75.84 0 0 -75.88zm-75.94 -75.97l-75.82 0 0 75.9 0 75.95 0 75.92 75.88 0 0 75.9 75.88 0 0 75.94 75.88 0 0 -75.94 0 -75.9 0 -75.86 75.84 0 75.88 0 75.88 0 0 -75.94 -75.88 0 0 -75.92 -75.88 0 0 -75.95 -75.88 0 -75.9 0 -75.88 0 0 75.9zm0.06 -303.6l75.82 0 0 75.88 -75.82 0 0 -75.88zm75.88 -75.92l75.84 0 0 75.86 -75.84 0 0 -75.86zm-303.52 151.8l-75.83 0 0 -75.88 75.83 0 0 75.88zm-75.9 -75.94l-75.81 0 0 -75.86 75.81 0 0 75.86zm227.66 151.8l0 75.94 75.88 0 0 -75.88 75.82 0 75.9 0 75.88 0 0 -75.92 75.88 0 0 -75.94 75.88 0 0 -75.92 -75.88 0 -75.88 0 -75.84 0 0 -75.86 0 -75.94 0 -75.9 -75.88 0 0 75.9 -75.88 0 0 75.94 -75.88 0 0 75.92 0 75.92 0 75.82 -75.88 0 0 -75.82 0 -75.92 0 -75.92 -75.88 0 0 -75.94 -75.9 0 0 -75.9 -75.88 0 0 75.9 0 75.94 0 75.86 -75.81 0 -75.88 0 -75.88 0 0 75.92 75.88 0 0 75.94 75.88 0 0 75.92 75.88 0 75.88 0 75.83 0 0 75.88 75.88 0 0 -75.94 -75.83 0 0 -75.82 75.83 0 0 75.82 75.88 0 0 -75.82 75.82 0 0 75.82 -75.82 0zm986.73 227.83l-75.9 0 0 -75.92 75.9 0 0 75.92zm-379.42 0l0 -75.92 75.88 0 0 75.92 -75.88 0zm455.3 75.94l-75.88 0 0 -75.94 75.88 0 0 75.94zm-531.2 0l0 -75.94 75.9 0 0 75.94 -75.9 0zm227.68 -75.94l75.86 0 0 75.94 75.88 0 0 75.9 -75.88 0 0 75.94 -75.86 0 0 -75.94 -75.9 0 0 -75.9 75.9 0 0 -75.94zm75.86 -379.53l-75.86 0 0 -75.92 -75.9 0 0 -75.9 75.9 0 0 -75.94 75.86 0 0 75.94 75.88 0 0 75.9 -75.88 0 0 75.92zm303.46 227.75l0 75.92 -75.86 0 0 -75.92 -75.88 0 0 -75.94 75.88 0 0 -75.93 75.86 0 0 75.93 75.9 0 0 75.94 -75.9 0zm-606.93 -151.87l0 75.93 75.88 0 0 75.94 -75.88 0 0 75.92 -75.88 0 0 -75.92 -75.88 0 0 -75.94 75.88 0 0 -75.93 75.88 0zm75.83 -75.88l75.88 0 0 75.95 -75.88 0 0 -75.95zm227.64 151.87l0 75.84 75.88 0 0 75.9 -75.88 0 0 -75.8 -75.86 0 0 75.8 -75.9 0 0 -75.9 75.9 0 0 -75.84 -75.9 0 0 -75.92 75.9 0 0 75.81 75.86 0 0 -75.81 75.88 0 0 75.92 -75.88 0zm75.88 -75.92l0 -75.95 75.9 0 0 75.95 -75.9 0zm-379.42 -151.87l75.9 0 0 75.92 -75.9 0 0 -75.92zm455.32 0l75.88 0 0 75.92 -75.88 0 0 -75.92zm683.17 303.56l0 75.92 -75.86 0 0 -75.92 75.86 0zm-151.76 151.82l-75.84 0 0 -75.85 75.84 0 0 75.85zm-75.88 75.95l-75.84 0 0 -75.88 75.84 0 0 75.88zm151.78 -75.95l0 -75.9 -75.84 0 0 -75.9 -75.9 0 -75.88 0 -75.87 0 0 75.95 -75.86 0 0 75.92 -75.9 0 0 75.94 75.9 0 75.86 0 75.83 0 0 75.86 0 75.9 0 75.94 75.88 0 0 -75.94 75.88 0 0 -75.9 75.9 0 0 -75.92 0 -75.95zm151.74 -75.85l75.84 0 0 75.85 -75.84 0 0 -75.85zm75.9 75.92l75.82 0 0 75.88 -75.82 0 0 -75.88zm-75.94 -75.97l-75.84 0 0 75.9 0 75.95 0 75.92 75.88 0 0 75.9 75.9 0 0 75.94 75.88 0 0 -75.94 0 -75.9 0 -75.86 75.84 0 75.86 0 75.87 0 0 -75.94 -75.87 0 0 -75.92 -75.86 0 0 -75.95 -75.9 0 -75.88 0 -75.88 0 0 75.9zm0.04 -303.6l75.84 0 0 75.88 -75.84 0 0 -75.88zm75.9 -75.92l75.82 0 0 75.86 -75.82 0 0 -75.86zm-303.54 151.8l-75.84 0 0 -75.88 75.84 0 0 75.88zm-75.88 -75.94l-75.84 0 0 -75.86 75.84 0 0 75.86zm227.64 151.8l0 75.94 75.88 0 0 -75.88 75.84 0 75.88 0 75.9 0 0 -75.92 75.86 0 0 -75.94 75.87 0 0 -75.92 -75.87 0 -75.86 0 -75.84 0 0 -75.86 0 -75.94 0 -75.9 -75.88 0 0 75.9 -75.9 0 0 75.94 -75.88 0 0 75.92 0 75.92 0 75.82 -75.86 0 0 -75.82 0 -75.92 0 -75.92 -75.9 0 0 -75.94 -75.88 0 0 -75.9 -75.88 0 0 75.9 0 75.94 0 75.86 -75.83 0 -75.86 0 -75.9 0 0 75.92 75.9 0 0 75.94 75.86 0 0 75.92 75.87 0 75.88 0 75.84 0 0 75.88 75.9 0 0 -75.94 -75.84 0 0 -75.82 75.84 0 0 75.82 75.86 0 0 -75.82 75.84 0 0 75.82 -75.84 0zm986.73 227.83l-75.9 0 0 -75.92 75.9 0 0 75.92zm-379.42 0l0 -75.92 75.88 0 0 75.92 -75.88 0zm455.3 75.94l-75.88 0 0 -75.94 75.88 0 0 75.94zm-531.18 0l0 -75.94 75.88 0 0 75.94 -75.88 0zm227.66 -75.94l75.86 0 0 75.94 75.88 0 0 75.9 -75.88 0 0 75.94 -75.86 0 0 -75.94 -75.9 0 0 -75.9 75.9 0 0 -75.94zm75.86 -379.53l-75.86 0 0 -75.92 -75.9 0 0 -75.9 75.9 0 0 -75.94 75.86 0 0 75.94 75.88 0 0 75.9 -75.88 0 0 75.92zm303.47 227.75l0 75.92 -75.85 0 0 -75.92 -75.9 0 0 -75.94 75.9 0 0 -75.93 75.85 0 0 75.93 75.88 0 0 75.94 -75.88 0zm-606.95 -151.87l0 75.93 75.9 0 0 75.94 -75.9 0 0 75.92 -75.88 0 0 -75.92 -75.85 0 0 -75.94 75.85 0 0 -75.93 75.88 0zm75.84 -75.88l75.88 0 0 75.95 -75.88 0 0 -75.95zm227.64 151.87l0 75.84 75.88 0 0 75.9 -75.88 0 0 -75.8 -75.86 0 0 75.8 -75.9 0 0 -75.9 75.9 0 0 -75.84 -75.9 0 0 -75.92 75.9 0 0 75.81 75.86 0 0 -75.81 75.88 0 0 75.92 -75.88 0zm75.88 -75.92l0 -75.95 75.9 0 0 75.95 -75.9 0zm-379.4 -151.87l75.88 0 0 75.92 -75.88 0 0 -75.92zm455.3 0l75.88 0 0 75.92 -75.88 0 0 -75.92zm683.17 303.56l0 75.92 -75.86 0 0 -75.92 75.86 0zm-151.74 151.82l-75.84 0 0 -75.85 75.84 0 0 75.85zm-75.9 75.95l-75.84 0 0 -75.88 75.84 0 0 75.88zm151.78 -75.95l0 -75.9 -75.84 0 0 -75.9 -75.88 0 -75.9 0 -75.86 0 0 75.95 -75.88 0 0 75.92 -75.87 0 0 75.94 75.87 0 75.88 0 75.82 0 0 75.86 0 75.9 0 75.94 75.88 0 0 -75.94 75.9 0 0 -75.9 75.88 0 0 -75.92 0 -75.95zm151.76 -75.85l75.81 0 0 75.85 -75.81 0 0 -75.85zm75.88 75.92l75.83 0 0 75.88 -75.83 0 0 -75.88zm-75.95 -75.97l-75.83 0 0 75.9 0 75.95 0 75.92 75.9 0 0 75.9 75.88 0 0 75.94 75.88 0 0 -75.94 0 -75.9 0 -75.86 75.83 0 75.86 0 75.9 0 0 -75.94 -75.9 0 0 -75.92 -75.86 0 0 -75.95 -75.88 0 -75.9 0 -75.88 0 0 75.9zm0.07 -303.6l75.81 0 0 75.88 -75.81 0 0 -75.88zm75.88 -75.92l75.83 0 0 75.86 -75.83 0 0 -75.86zm-303.52 151.8l-75.84 0 0 -75.88 75.84 0 0 75.88zm-75.9 -75.94l-75.84 0 0 -75.86 75.84 0 0 75.86zm227.64 151.8l0 75.94 75.9 0 0 -75.88 75.81 0 75.9 0 75.88 0 0 -75.92 75.86 0 0 -75.94 75.9 0 0 -75.92 -75.9 0 -75.86 0 -75.83 0 0 -75.86 0 -75.94 0 -75.9 -75.88 0 0 75.9 -75.88 0 0 75.94 -75.9 0 0 75.92 0 75.92 0 75.82 -75.86 0 0 -75.82 0 -75.92 0 -75.92 -75.88 0 0 -75.94 -75.9 0 0 -75.9 -75.88 0 0 75.9 0 75.94 0 75.86 -75.82 0 -75.88 0 -75.87 0 0 75.92 75.87 0 0 75.94 75.88 0 0 75.92 75.86 0 75.9 0 75.84 0 0 75.88 75.88 0 0 -75.94 -75.84 0 0 -75.82 75.84 0 0 75.82 75.86 0 0 -75.82 75.83 0 0 75.82 -75.83 0zm986.73 227.83l-75.88 0 0 -75.92 75.88 0 0 75.92zm-379.42 0l0 -75.92 75.9 0 0 75.92 -75.9 0zm455.3 75.94l-75.88 0 0 -75.94 75.88 0 0 75.94zm-531.18 0l0 -75.94 75.88 0 0 75.94 -75.88 0zm227.66 -75.94l75.9 0 0 75.94 75.86 0 0 75.9 -75.86 0 0 75.94 -75.9 0 0 -75.94 -75.88 0 0 -75.9 75.88 0 0 -75.94zm75.9 -379.53l-75.9 0 0 -75.92 -75.88 0 0 -75.9 75.88 0 0 -75.94 75.9 0 0 75.94 75.86 0 0 75.9 -75.86 0 0 75.92zm303.45 227.75l0 75.92 -75.88 0 0 -75.92 -75.88 0 0 -75.94 75.88 0 0 -75.93 75.88 0 0 75.93 75.9 0 0 75.94 -75.9 0zm-606.95 -151.87l0 75.93 75.88 0 0 75.94 -75.88 0 0 75.92 -75.88 0 0 -75.92 -75.88 0 0 -75.94 75.88 0 0 -75.93 75.88 0zm75.82 -75.88l75.9 0 0 75.95 -75.9 0 0 -75.95zm227.68 151.87l0 75.84 75.86 0 0 75.9 -75.86 0 0 -75.8 -75.9 0 0 75.8 -75.88 0 0 -75.9 75.88 0 0 -75.84 -75.88 0 0 -75.92 75.88 0 0 75.81 75.9 0 0 -75.81 75.86 0 0 75.92 -75.86 0zm75.86 -75.92l0 -75.95 75.88 0 0 75.95 -75.88 0zm-379.42 -151.87l75.88 0 0 75.92 -75.88 0 0 -75.92zm455.3 0l75.88 0 0 75.92 -75.88 0 0 -75.92zm683.21 303.56l0 75.92 -75.9 0 0 -75.92 75.9 0zm-151.78 151.82l-75.84 0 0 -75.85 75.84 0 0 75.85zm-75.9 75.95l-75.8 0 0 -75.88 75.8 0 0 75.88zm151.78 -75.95l0 -75.9 -75.84 0 0 -75.9 -75.88 0 -75.86 0 -75.88 0 0 75.95 -75.9 0 0 75.92 -75.88 0 0 75.94 75.88 0 75.9 0 75.82 0 0 75.86 0 75.9 0 75.94 75.86 0 0 -75.94 75.9 0 0 -75.9 75.88 0 0 -75.92 0 -75.95zm151.76 -75.85l75.83 0 0 75.85 -75.83 0 0 -75.85zm75.88 75.92l75.83 0 0 75.88 -75.83 0 0 -75.88zm-75.95 -75.97l-75.79 0 0 75.9 0 75.95 0 75.92 75.86 0 0 75.9 75.88 0 0 75.94 75.9 0 0 -75.94 0 -75.9 0 -75.86 75.81 0 75.9 0 75.86 0 0 -75.94 -75.86 0 0 -75.92 -75.9 0 0 -75.95 -75.88 0 -75.88 0 -75.9 0 0 75.9zm0.07 -303.6l75.83 0 0 75.88 -75.83 0 0 -75.88zm75.88 -75.92l75.83 0 0 75.86 -75.83 0 0 -75.86zm-303.52 151.8l-75.84 0 0 -75.88 75.84 0 0 75.88zm-75.9 -75.94l-75.8 0 0 -75.86 75.8 0 0 75.86zm227.68 151.8l0 75.94 75.86 0 0 -75.88 75.83 0 75.88 0 75.88 0 0 -75.92 75.9 0 0 -75.94 75.86 0 0 -75.92 -75.86 0 -75.9 0 -75.81 0 0 -75.86 0 -75.94 0 -75.9 -75.9 0 0 75.9 -75.88 0 0 75.94 -75.86 0 0 75.92 0 75.92 0 75.82 -75.9 0 0 -75.82 0 -75.92 0 -75.92 -75.88 0 0 -75.94 -75.9 0 0 -75.9 -75.86 0 0 75.9 0 75.94 0 75.86 -75.82 0 -75.9 0 -75.88 0 0 75.92 75.88 0 0 75.94 75.9 0 0 75.92 75.88 0 75.86 0 75.84 0 0 75.88 75.88 0 0 -75.94 -75.84 0 0 -75.82 75.84 0 0 75.82 75.9 0 0 -75.82 75.79 0 0 75.82 -75.79 0zm986.68 227.83l-75.88 0 0 -75.92 75.88 0 0 75.92zm-379.39 0l0 -75.92 75.88 0 0 75.92 -75.88 0zm455.29 75.94l-75.9 0 0 -75.94 75.9 0 0 75.94zm-531.19 0l0 -75.94 75.9 0 0 75.94 -75.9 0zm227.68 -75.94l75.86 0 0 75.94 75.87 0 0 75.9 -75.87 0 0 75.94 -75.86 0 0 -75.94 -75.9 0 0 -75.9 75.9 0 0 -75.94zm75.86 -379.53l-75.86 0 0 -75.92 -75.9 0 0 -75.9 75.9 0 0 -75.94 75.86 0 0 75.94 75.87 0 0 75.9 -75.87 0 0 75.92zm303.49 227.75l0 75.92 -75.9 0 0 -75.92 -75.88 0 0 -75.94 75.88 0 0 -75.93 75.9 0 0 75.93 75.88 0 0 75.94 -75.88 0zm-606.97 -151.87l0 75.93 75.88 0 0 75.94 -75.88 0 0 75.92 -75.86 0 0 -75.92 -75.9 0 0 -75.94 75.9 0 0 -75.93 75.86 0zm75.84 -75.88l75.88 0 0 75.95 -75.88 0 0 -75.95zm227.64 151.87l0 75.84 75.87 0 0 75.9 -75.87 0 0 -75.8 -75.86 0 0 75.8 -75.9 0 0 -75.9 75.9 0 0 -75.84 -75.9 0 0 -75.92 75.9 0 0 75.81 75.86 0 0 -75.81 75.87 0 0 75.92 -75.87 0zm75.87 -75.92l0 -75.95 75.88 0 0 75.95 -75.88 0zm-379.41 -151.87l75.9 0 0 75.92 -75.9 0 0 -75.92zm455.29 0l75.9 0 0 75.92 -75.9 0 0 -75.92zm683.22 303.56l0 75.92 -75.88 0 0 -75.92 75.88 0zm-151.78 151.82l-75.84 0 0 -75.85 75.84 0 0 75.85zm-75.88 75.95l-75.82 0 0 -75.88 75.82 0 0 75.88zm151.78 -75.95l0 -75.9 -75.84 0 0 -75.9 -75.9 0 -75.86 0 -75.88 0 0 75.95 -75.88 0 0 75.92 -75.9 0 0 75.94 75.9 0 75.88 0 75.84 0 0 75.86 0 75.9 0 75.94 75.86 0 0 -75.94 75.88 0 0 -75.9 75.9 0 0 -75.92 0 -75.95zm151.75 -75.85l75.82 0 0 75.85 -75.82 0 0 -75.85zm75.86 75.92l75.84 0 0 75.88 -75.84 0 0 -75.88zm-75.9 -75.97l-75.83 0 0 75.9 0 75.95 0 75.92 75.87 0 0 75.9 75.86 0 0 75.94 75.9 0 0 -75.94 0 -75.9 0 -75.86 75.84 0 75.88 0 75.9 0 0 -75.94 -75.9 0 0 -75.92 -75.88 0 0 -75.95 -75.9 0 -75.88 0 -75.86 0 0 75.9zm0.04 -303.6l75.82 0 0 75.88 -75.82 0 0 -75.88zm75.86 -75.92l75.84 0 0 75.86 -75.84 0 0 -75.86zm-303.51 151.8l-75.84 0 0 -75.88 75.84 0 0 75.88zm-75.88 -75.94l-75.82 0 0 -75.86 75.82 0 0 75.86zm319.29 -227.72l-15.76 0 0 75.94 -75.87 0 0 75.92 0 75.92 0 75.82 -75.88 0 0 -75.82 0 -75.92 0 -75.92 -75.9 0 0 -75.94 -75.88 0 0 -75.9 -75.86 0 0 75.9 0 75.94 0 75.86 -75.84 0 -75.88 0 -75.9 0 0 75.92 75.9 0 0 75.94 75.88 0 0 75.92 75.88 0 75.86 0 75.84 0 0 75.88 75.9 0 0 -75.94 -75.84 0 0 -75.82 75.84 0 0 75.82 75.88 0 0 -75.82 75.83 0 0 75.82 -75.83 0 0 75.94 75.87 0 0 -75.88 75.82 0 75.88 0 75.9 0 0 -75.92 39.22 0 -251.06 -303.66zm-7682.12 -379.46l75.9 0 0 75.9 -75.9 0 0 -75.9zm-227.64 227.8l0 75.86 0 75.9 0 75.94 75.88 0 0 -75.94 75.88 0 0 -75.9 75.88 0 0 -75.94 0 -75.92 0 -75.9 -75.88 0.04 0 75.86 -75.81 0 -0.07 75.92 -75.88 0.08zm531.12 -0.08l-75.82 0 0 -75.86 75.82 0 0 75.86zm-75.88 -75.92l-75.82 0 0 -75.86 75.82 0 0 75.86zm303.54 76l0 -75.94 -75.88 0 0 -75.92 -75.9 0 0 -75.94 -75.88 0 -75.88 0 -75.88 0 0 75.9 -75.82 0 0 75.9 0 75.92 0 75.94 75.88 0 0 75.9 75.88 0 0 75.94 75.88 0 0 -75.94 0 -75.9 0 -75.86 75.82 0 75.9 0 75.88 0zm455.59 -151.86l75.88 0 0 75.92 -75.88 0 0 -75.92zm-303.54 75.92l0 -75.92 75.9 0 0 75.92 -75.9 0zm455.3 75.94l-75.88 0 0 -75.94 75.88 0 0 75.94zm-528.49 2.67l0 -75.95 75.88 0 0 75.95 -75.88 0zm300.85 -78.61l0 75.94 75.88 0 0 75.9 -75.88 0 0 75.92 -75.88 0 0 -75.92 -75.88 0 0 -75.9 75.88 0 0 -75.94 75.88 0zm227.6 -151.8l75.88 0 0 75.94 -75.88 0 0 -75.94zm-606.95 0l75.88 0 0 75.94 -75.88 0 0 -75.94zm1138.4 -0.06l75.9 0 0 75.9 -75.9 0 0 -75.9zm-75.86 151.8l-75.83 0 0 -75.86 75.83 0 0 75.86zm-75.88 75.92l-75.83 0 0 -75.86 75.83 0 0 75.86zm151.74 -75.92l0 -75.9 -75.79 0 0 -75.9 -75.9 0 -75.88 0 -75.88 0 0 75.94 -75.88 0 0 75.92 -75.88 0 0 75.94 75.88 0 75.88 0 75.81 0 0 75.86 0 75.9 0 75.94 75.9 0 0 -75.94 75.88 0 0 -75.9 75.86 0 0 -75.94 0 -75.92zm303.5 75.92l-75.82 0 0 -75.86 75.82 0 0 75.86zm-75.88 -75.92l-75.84 0 0 -75.86 75.84 0 0 75.86zm303.52 76l0 -75.94 -75.88 0 0 -75.92 -75.9 0 0 -75.94 -75.86 0 -75.88 0 -75.88 0 0 75.9 -75.84 0 0 75.9 0 75.92 0 75.94 75.88 0 0 75.9 75.9 0 0 75.94 75.88 0 0 -75.94 0 -75.9 0 -75.86 75.8 0 75.9 0 75.88 0zm-1441.95 -227.8l75.52 0 0 70.23 0.36 0 0 5.71 -75.88 0 0 -75.94zm151.76 70.23l0 -70.13 0 -0.1 75.88 0 0 75.94 -75.88 0 0 -5.71zm1745.78 5.71l75.9 0 0 75.92 -75.9 0 0 -75.92zm-303.52 75.92l0 -75.92 75.88 0 0 75.92 -75.88 0zm455.3 75.94l-75.88 0 0 -75.94 75.88 0 0 75.94zm-531.18 0l0 -75.94 75.88 0 0 75.94 -75.88 0zm303.52 -75.94l0 75.94 75.88 0 0 75.9 -75.88 0 0 75.92 -75.86 0 0 -75.92 -75.9 0 0 -75.9 75.9 0 0 -75.94 75.86 0zm227.6 -151.8l75.9 0 0 75.94 -75.9 0 0 -75.94zm-606.95 0l75.87 0 0 75.94 -75.87 0 0 -75.94zm1138.44 -0.06l75.86 0 0 75.9 -75.86 0 0 -75.9zm-75.9 151.8l-75.82 0 0 -75.86 75.82 0 0 75.86zm-75.88 75.92l-75.84 0 0 -75.86 75.84 0 0 75.86zm151.78 -75.92l0 -75.9 -75.84 0 0 -75.9 -75.88 0 -75.9 0 -75.88 0 0 75.94 -75.85 0 0 75.92 -75.9 0 0 75.94 75.9 0 75.85 0 75.84 0 0 75.86 0 75.9 0 75.94 75.88 0 0 -75.94 75.88 0 0 -75.9 75.9 0 0 -75.94 0 -75.92zm303.48 75.92l-75.84 0 0 -75.86 75.84 0 0 75.86zm-75.9 -75.92l-75.84 0 0 -75.86 75.84 0 0 75.86zm303.51 76l0 -75.94 -75.88 0 0 -75.92 -75.85 0 0 -75.94 -75.88 0 -75.9 0 -75.88 0 0 75.9 -75.84 0 0 75.9 0 75.92 0 75.94 75.88 0 0 75.9 75.9 0 0 75.94 75.88 0 0 -75.94 0 -75.9 0 -75.86 75.84 0 75.85 0 75.88 0zm-1441.94 -227.8l75.52 0 0 70.23 0.38 0 0 5.71 -75.9 0 0 -75.94zm151.76 70.23l0 -70.13 0 -0.1 75.88 0 0 75.94 -75.88 0 0 -5.71zm1745.8 5.71l75.88 0 0 75.92 -75.88 0 0 -75.92zm-303.54 75.92l0 -75.92 75.9 0 0 75.92 -75.9 0zm455.3 75.94l-75.88 0 0 -75.94 75.88 0 0 75.94zm-531.18 0l0 -75.94 75.88 0 0 75.94 -75.88 0zm303.52 -75.94l0 75.94 75.9 0 0 75.9 -75.9 0 0 75.92 -75.86 0 0 -75.92 -75.88 0 0 -75.9 75.88 0 0 -75.94 75.86 0zm227.61 -151.8l75.88 0 0 75.94 -75.88 0 0 -75.94zm-606.95 0l75.86 0 0 75.94 -75.86 0 0 -75.94zm1138.43 -0.06l75.9 0 0 75.9 -75.9 0 0 -75.9zm-75.88 151.8l-75.84 0 0 -75.86 75.84 0 0 75.86zm-75.9 75.92l-75.8 0 0 -75.86 75.8 0 0 75.86zm151.78 -75.92l0 -75.9 -75.84 0 0 -75.9 -75.88 0 -75.86 0 -75.9 0 0 75.94 -75.88 0 0 75.92 -75.88 0 0 75.94 75.88 0 75.88 0 75.82 0 0 75.86 0 75.9 0 75.94 75.88 0 0 -75.94 75.9 0 0 -75.9 75.88 0 0 -75.94 0 -75.92zm303.47 75.92l-75.83 0 0 -75.86 75.83 0 0 75.86zm-75.88 -75.92l-75.81 0 0 -75.86 75.81 0 0 75.86zm303.52 76l0 -75.94 -75.86 0 0 -75.92 -75.9 0 0 -75.94 -75.88 0 -75.88 0 -75.88 0 0 75.9 -75.81 0 0 75.9 0 75.92 0 75.94 75.88 0 0 75.9 75.86 0 0 75.94 75.88 0 0 -75.94 0 -75.9 0 -75.86 75.83 0 75.9 0 75.86 0zm-1441.94 -227.8l75.54 0 0 70.23 0.34 0 0 5.71 -75.88 0 0 -75.94zm151.74 70.23l0 -70.13 0 -0.1 75.9 0 0 75.94 -75.9 0 0 -5.71zm1745.82 5.71l75.86 0 0 75.92 -75.86 0 0 -75.92zm-303.56 75.92l0 -75.92 75.9 0 0 75.92 -75.9 0zm455.32 75.94l-75.9 0 0 -75.94 75.9 0 0 75.94zm-531.18 0l0 -75.94 75.86 0 0 75.94 -75.86 0zm303.54 -75.94l0 75.94 75.88 0 0 75.9 -75.88 0 0 75.92 -75.9 0 0 -75.92 -75.88 0 0 -75.9 75.88 0 0 -75.94 75.9 0zm227.57 -151.8l75.88 0 0 75.94 -75.88 0 0 -75.94zm-606.93 0l75.88 0 0 75.94 -75.88 0 0 -75.94zm1138.43 -0.06l75.88 0 0 75.9 -75.88 0 0 -75.9zm-75.9 151.8l-75.84 0 0 -75.86 75.84 0 0 75.86zm-75.88 75.92l-75.84 0 0 -75.86 75.84 0 0 75.86zm151.78 -75.92l0 -75.9 -75.84 0 0 -75.9 -75.9 0 -75.88 0 -75.86 0 0 75.94 -75.9 0 0 75.92 -75.88 0 0 75.94 75.88 0 75.9 0 75.8 0 0 75.86 0 75.9 0 75.94 75.9 0 0 -75.94 75.88 0 0 -75.9 75.9 0 0 -75.94 0 -75.92zm303.45 75.92l-75.84 0 0 -75.86 75.84 0 0 75.86zm-75.88 -75.92l-75.84 0 0 -75.86 75.84 0 0 75.86zm303.54 76l0 -75.94 -75.88 0 0 -75.92 -75.88 0 0 -75.94 -75.9 0 -75.88 0 -75.88 0 0 75.9 -75.81 0 0 75.9 0 75.92 0 75.94 75.85 0 0 75.9 75.88 0 0 75.94 75.9 0 0 -75.94 0 -75.9 0 -75.86 75.84 0 75.88 0 75.88 0zm-1441.96 -227.8l75.54 0 0 70.23 0.34 0 0 5.71 -75.88 0 0 -75.94zm151.78 70.23l0 -70.13 0 -0.1 75.88 0 0 75.94 -75.88 0 0 -5.71zm1366.38 157.57l0 -75.94 75.86 0 0 75.94 -75.86 0zm322.25 75.9l-18.73 0 0 75.92 -75.88 0 0 -75.92 -75.9 0 0 -75.9 75.9 0 0 -30.17c39.98,39.73 71.5,75.1 94.61,106.07zm-398.09 -303.64l75.88 0 0 75.94 -75.88 0 0 -75.94z"/>
   </g>
   <g>
    <path class="fil3" d="M7782.34 12712.3l75.9 0 0 -75.88 -75.9 0 0 75.88zm-75.81 -75.88l75.81 0 0 -75.92 0 -75.94 0 -75.92 -75.88 0 0 -75.91 -75.88 0 0 -75.94 -75.88 0 0 75.94 0 59.14c43.75,61.69 82.37,117.91 115.86,168.63l35.9 0 0.07 75.92zm379.29 -75.98l-75.82 0 0 -75.88 75.82 0 0 75.88zm-75.88 75.92l-75.82 0 0 -75.86 75.82 0 0 75.86zm227.66 -151.85l-75.88 0 -75.84 0 0 -75.87 0 -75.91 0 -75.94 -75.88 0 0 75.94 -75.88 0 0 75.91 -75.88 0 0 75.92 0 75.94 0 75.92 75.82 0 0 75.88 75.88 0 75.88 0 75.9 0 0 -75.94 75.88 0 0 -75.92 75.88 0 0 -75.93 -75.88 0zm531.47 151.85l75.88 0 0 -75.92 -75.88 0 0 75.92zm-303.54 -75.92l0 75.92 75.9 0 0 -75.92 -75.9 0zm455.3 -75.93l-75.88 0 0 75.93 75.88 0 0 -75.93zm-531.18 0l0 75.93 75.88 0 0 -75.93 -75.88 0zm303.54 75.93l0 -75.93 75.88 0 0 -75.92 -75.88 0 0 -75.94 -75.88 0 0 75.94 -75.88 0 0 75.92 75.88 0 0 75.93 75.88 0zm227.6 151.78l75.88 0 0 -75.9 -75.88 0 0 75.9zm-606.95 0l75.88 0 0 -75.9 -75.88 0 0 75.9zm1138.4 0.08l75.9 0 0 -75.88 -75.9 0 0 75.88zm-75.86 -75.94l-75.83 0 0 -75.86 75.83 0 0 75.86zm-75.88 -75.92l-75.83 0 0 -75.88 75.83 0 0 75.88zm151.74 -75.88l0 -75.92 -75.86 0 0 -75.91 -75.88 0 0 -75.94 -75.9 0 0 75.94 0 75.91 0 75.87 -75.81 0 -75.88 0 -75.88 0 0 75.93 75.88 0 0 75.92 75.88 0 0 75.94 75.88 0 75.88 0 75.9 0 0 -75.88 75.79 0 0 -75.92 0 -75.94zm303.5 75.88l-75.82 0 0 -75.88 75.82 0 0 75.88zm-75.88 75.92l-75.84 0 0 -75.86 75.84 0 0 75.86zm227.64 -151.85l-75.9 0 -75.8 0 0 -75.87 0 -75.91 0 -75.94 -75.88 0 0 75.94 -75.9 0 0 75.91 -75.88 0 0 75.92 0 75.94 0 75.92 75.84 0 0 75.88 75.88 0 75.88 0 75.86 0 0 -75.94 75.9 0 0 -75.92 75.88 0 0 -75.93 -75.88 0zm-1366.07 227.79l75.52 0 0 -70.23 0.36 0 0 -5.71 -75.88 0 0 75.94zm151.76 -70.23l0 70.1 0 0.13 75.88 0 0 -75.94 -75.88 0 0 5.71zm1745.78 -5.71l75.9 0 0 -75.92 -75.9 0 0 75.92zm-303.52 -75.92l0 75.92 75.88 0 0 -75.92 -75.88 0zm455.3 -75.93l-75.88 0 0 75.93 75.88 0 0 -75.93zm-531.18 0l0 75.93 75.88 0 0 -75.93 -75.88 0zm303.52 75.93l0 -75.93 75.88 0 0 -75.92 -75.88 0 0 -75.94 -75.86 0 0 75.94 -75.9 0 0 75.92 75.9 0 0 75.93 75.86 0zm227.6 151.78l75.9 0 0 -75.9 -75.9 0 0 75.9zm-606.95 0l75.87 0 0 -75.9 -75.87 0 0 75.9zm1138.44 0.08l75.86 0 0 -75.88 -75.86 0 0 75.88zm-75.9 -75.94l-75.82 0 0 -75.86 75.82 0 0 75.86zm-75.88 -75.92l-75.84 0 0 -75.88 75.84 0 0 75.88zm151.78 -75.88l0 -75.92 -75.9 0 0 -75.91 -75.88 0 0 -75.94 -75.88 0 0 75.94 0 75.91 0 75.87 -75.84 0 -75.85 0 -75.9 0 0 75.93 75.9 0 0 75.92 75.85 0 0 75.94 75.88 0 75.9 0 75.88 0 0 -75.88 75.84 0 0 -75.92 0 -75.94zm303.48 75.88l-75.84 0 0 -75.88 75.84 0 0 75.88zm-75.9 75.92l-75.84 0 0 -75.86 75.84 0 0 75.86zm227.63 -151.85l-75.85 0 -75.84 0 0 -75.87 0 -75.91 0 -75.94 -75.88 0 0 75.94 -75.9 0 0 75.91 -75.88 0 0 75.92 0 75.94 0 75.92 75.84 0 0 75.88 75.88 0 75.9 0 75.88 0 0 -75.94 75.85 0 0 -75.92 75.88 0 0 -75.93 -75.88 0zm-1366.06 227.79l75.52 0 0 -70.23 0.38 0 0 -5.71 -75.9 0 0 75.94zm151.76 -70.23l0 70.1 0 0.13 75.88 0 0 -75.94 -75.88 0 0 5.71zm1745.8 -5.71l75.88 0 0 -75.92 -75.88 0 0 75.92zm-303.54 -75.92l0 75.92 75.9 0 0 -75.92 -75.9 0zm455.3 -75.93l-75.88 0 0 75.93 75.88 0 0 -75.93zm-531.18 0l0 75.93 75.88 0 0 -75.93 -75.88 0zm303.52 75.93l0 -75.93 75.9 0 0 -75.92 -75.9 0 0 -75.94 -75.86 0 0 75.94 -75.88 0 0 75.92 75.88 0 0 75.93 75.86 0zm227.61 151.78l75.88 0 0 -75.9 -75.88 0 0 75.9zm-606.95 0l75.86 0 0 -75.9 -75.86 0 0 75.9zm1138.43 0.08l75.9 0 0 -75.88 -75.9 0 0 75.88zm-75.88 -75.94l-75.84 0 0 -75.86 75.84 0 0 75.86zm-75.9 -75.92l-75.8 0 0 -75.88 75.8 0 0 75.88zm151.78 -75.88l0 -75.92 -75.88 0 0 -75.91 -75.9 0 0 -75.94 -75.88 0 0 75.94 0 75.91 0 75.87 -75.82 0 -75.88 0 -75.88 0 0 75.93 75.88 0 0 75.92 75.88 0 0 75.94 75.9 0 75.86 0 75.88 0 0 -75.88 75.84 0 0 -75.92 0 -75.94zm303.47 75.88l-75.83 0 0 -75.88 75.83 0 0 75.88zm-75.88 75.92l-75.81 0 0 -75.86 75.81 0 0 75.86zm227.66 -151.85l-75.9 0 -75.83 0 0 -75.87 0 -75.91 0 -75.94 -75.88 0 0 75.94 -75.86 0 0 75.91 -75.88 0 0 75.92 0 75.94 0 75.92 75.81 0 0 75.88 75.88 0 75.88 0 75.88 0 0 -75.94 75.9 0 0 -75.92 75.86 0 0 -75.93 -75.86 0zm-1366.08 227.79l75.54 0 0 -70.23 0.34 0 0 -5.71 -75.88 0 0 75.94zm151.74 -70.23l0 70.1 0 0.13 75.9 0 0 -75.94 -75.9 0 0 5.71zm1745.82 -5.71l75.86 0 0 -75.92 -75.86 0 0 75.92zm-303.56 -75.92l0 75.92 75.9 0 0 -75.92 -75.9 0zm455.32 -75.93l-75.9 0 0 75.93 75.9 0 0 -75.93zm-531.18 0l0 75.93 75.86 0 0 -75.93 -75.86 0zm303.54 75.93l0 -75.93 75.88 0 0 -75.92 -75.88 0 0 -75.94 -75.9 0 0 75.94 -75.88 0 0 75.92 75.88 0 0 75.93 75.9 0zm227.57 151.78l75.88 0 0 -75.9 -75.88 0 0 75.9zm-606.93 0l75.88 0 0 -75.9 -75.88 0 0 75.9zm1138.43 0.08l75.88 0 0 -75.88 -75.88 0 0 75.88zm-75.9 -75.94l-75.84 0 0 -75.86 75.84 0 0 75.86zm-75.88 -75.92l-75.84 0 0 -75.88 75.84 0 0 75.88zm151.78 -75.88l0 -75.92 -75.9 0 0 -75.91 -75.88 0 0 -75.94 -75.9 0 0 75.94 0 75.91 0 75.87 -75.8 0 -75.9 0 -75.88 0 0 75.93 75.88 0 0 75.92 75.9 0 0 75.94 75.86 0 75.88 0 75.9 0 0 -75.88 75.84 0 0 -75.92 0 -75.94zm303.45 75.88l-75.84 0 0 -75.88 75.84 0 0 75.88zm-75.88 75.92l-75.84 0 0 -75.86 75.84 0 0 75.86zm227.66 -151.85l-75.88 0 -75.84 0 0 -75.87 0 -75.91 0 -75.94 -75.9 0 0 75.94 -75.88 0 0 75.91 -75.85 0 0 75.92 0 75.94 0 75.92 75.81 0 0 75.88 75.88 0 75.88 0 75.9 0 0 -75.94 75.88 0 0 -75.92 75.88 0 0 -75.93 -75.88 0zm-1366.08 227.79l75.54 0 0 -70.23 0.34 0 0 -5.71 -75.88 0 0 75.94zm151.78 -70.23l0 70.1 0 0.13 75.88 0 0 -75.94 -75.88 0 0 5.71zm1442.24 -81.63l0 75.92 75.87 0 0 -75.92 -75.87 0zm-75.86 -75.93l0 75.93 75.86 0 0 -75.93 -75.86 0zm227.64 31.19c28.85,-48.31 54.16,-89.66 75.87,-124.04l0 -59.01 -75.87 0 0 75.94 -75.91 0 0 75.92 75.91 0 0 31.19zm-303.48 196.52l75.88 0 0 -75.9 -75.88 0 0 75.9zm233.62 -75.86l-6.05 0 0 10.76 6.05 -10.76zm-8016.07 -683.13c85.09,100.34 147.34,176.29 186.7,227.81l4.91 0 75.9 0 0 -75.94 -75.9 0 0 -75.93 -75.88 0 0 -75.94 -75.88 0 -39.85 0zm-111.87 -227.7l75.84 0 0 75.88 -75.84 0 0 -75.88zm75.9 -75.92l75.82 0 0 75.86 -75.82 0 0 -75.86zm-99.58 151.84l23.64 0 0 25.71 -23.64 -25.71zm68.95 75.88l30.57 0 75.88 0 75.88 0 0 -75.92 75.88 0 0 -75.94 75.9 0 0 -75.93 -75.9 0 -75.88 0 -75.82 0 0 -75.85 0 -75.95 0 -75.9 -75.88 0 0 75.9 -75.9 0 0 75.95 -75.88 0 0 75.92 0 75.92 0 20.23 121.15 131.57zm-197.03 -209.96l0 -17.76 0 -75.92 -75.88 0 0 -75.95 -75.87 0 0 -75.9 -75.88 0 0 27.21 227.63 218.32zm1062.61 437.73l-75.88 0 0 -75.93 75.88 0 0 75.93zm-379.42 0l0 -75.93 75.88 0 0 75.93 -75.88 0zm455.3 75.94l-75.88 0 0 -75.94 75.88 0 0 75.94zm-531.18 0l0 -75.94 75.88 0 0 75.94 -75.88 0zm227.64 -75.94l75.9 0 0 75.94 75.88 0 0 75.9 -75.88 0 0 75.94 -75.9 0 0 -75.94 -75.88 0 0 -75.9 75.88 0 0 -75.94zm75.9 -379.53l-75.9 0 0 -75.92 -75.88 0 0 -75.9 75.88 0 0 -75.94 75.9 0 0 75.94 75.88 0 0 75.9 -75.88 0 0 75.92zm303.46 227.75l0 75.92 -75.88 0 0 -75.92 -75.88 0 0 -75.95 75.88 0 0 -75.92 75.88 0 0 75.92 75.9 0 0 75.95 -75.9 0zm-606.93 -151.87l0 75.92 75.88 0 0 75.95 -75.88 0 0 75.92 -75.88 0 0 -75.92 -75.9 0 0 -75.95 75.9 0 0 -75.92 75.88 0zm75.81 -75.88l75.88 0 0 75.95 -75.88 0 0 -75.95zm227.66 151.87l0 75.83 75.88 0 0 75.9 -75.88 0 0 -75.79 -75.9 0 0 75.79 -75.88 0 0 -75.9 75.88 0 0 -75.83 -75.88 0 0 -75.92 75.88 0 0 75.81 75.9 0 0 -75.81 75.88 0 0 75.92 -75.88 0zm75.88 -75.92l0 -75.95 75.88 0 0 75.95 -75.88 0zm-379.42 -151.87l75.88 0 0 75.92 -75.88 0 0 -75.92zm455.3 0l75.88 0 0 75.92 -75.88 0 0 -75.92zm683.19 303.56l0 75.92 -75.88 0 0 -75.92 75.88 0zm-151.76 151.82l-75.83 0 0 -75.86 75.83 0 0 75.86zm-75.9 75.95l-75.81 0 0 -75.88 75.81 0 0 75.88zm151.78 -75.95l0 -75.9 -75.83 0 0 -75.9 -75.88 0 -75.88 0 -75.88 0 0 75.94 -75.88 0 0 75.93 -75.88 0 0 75.94 75.88 0 75.88 0 75.81 0 0 75.86 0 75.9 0 75.94 75.88 0 0 -75.94 75.9 0 0 -75.9 75.88 0 0 -75.92 0 -75.95zm151.76 -75.86l75.82 0 0 75.86 -75.82 0 0 -75.86zm75.88 75.93l75.84 0 0 75.88 -75.84 0 0 -75.88zm-75.94 -75.97l-75.82 0 0 75.9 0 75.95 0 75.92 75.88 0 0 75.9 75.88 0 0 75.94 75.88 0 0 -75.94 0 -75.9 0 -75.86 75.84 0 75.88 0 75.88 0 0 -75.94 -75.88 0 0 -75.93 -75.88 0 0 -75.94 -75.88 0 -75.9 0 -75.88 0 0 75.9zm0.06 -303.6l75.82 0 0 75.88 -75.82 0 0 -75.88zm75.88 -75.92l75.84 0 0 75.86 -75.84 0 0 -75.86zm-303.52 151.8l-75.83 0 0 -75.88 75.83 0 0 75.88zm-75.9 -75.94l-75.81 0 0 -75.86 75.81 0 0 75.86zm227.66 151.8l0 75.94 75.88 0 0 -75.88 75.82 0 75.9 0 75.88 0 0 -75.92 75.88 0 0 -75.94 75.88 0 0 -75.93 -75.88 0 -75.88 0 -75.84 0 0 -75.85 0 -75.95 0 -75.9 -75.88 0 0 75.9 -75.88 0 0 75.95 -75.88 0 0 75.92 0 75.92 0 75.82 -75.88 0 0 -75.82 0 -75.92 0 -75.92 -75.88 0 0 -75.95 -75.9 0 0 -75.9 -75.88 0 0 75.9 0 75.95 0 75.85 -75.81 0 -75.88 0 -75.88 0 0 75.93 75.88 0 0 75.94 75.88 0 0 75.92 75.88 0 75.88 0 75.83 0 0 75.88 75.88 0 0 -75.94 -75.83 0 0 -75.82 75.83 0 0 75.82 75.88 0 0 -75.82 75.82 0 0 75.82 -75.82 0zm986.73 227.83l-75.9 0 0 -75.93 75.9 0 0 75.93zm-379.42 0l0 -75.93 75.88 0 0 75.93 -75.88 0zm455.3 75.94l-75.88 0 0 -75.94 75.88 0 0 75.94zm-531.2 0l0 -75.94 75.9 0 0 75.94 -75.9 0zm227.68 -75.94l75.86 0 0 75.94 75.88 0 0 75.9 -75.88 0 0 75.94 -75.86 0 0 -75.94 -75.9 0 0 -75.9 75.9 0 0 -75.94zm75.86 -379.53l-75.86 0 0 -75.92 -75.9 0 0 -75.9 75.9 0 0 -75.94 75.86 0 0 75.94 75.88 0 0 75.9 -75.88 0 0 75.92zm303.46 227.75l0 75.92 -75.86 0 0 -75.92 -75.88 0 0 -75.95 75.88 0 0 -75.92 75.86 0 0 75.92 75.9 0 0 75.95 -75.9 0zm-606.93 -151.87l0 75.92 75.88 0 0 75.95 -75.88 0 0 75.92 -75.88 0 0 -75.92 -75.88 0 0 -75.95 75.88 0 0 -75.92 75.88 0zm75.83 -75.88l75.88 0 0 75.95 -75.88 0 0 -75.95zm227.64 151.87l0 75.83 75.88 0 0 75.9 -75.88 0 0 -75.79 -75.86 0 0 75.79 -75.9 0 0 -75.9 75.9 0 0 -75.83 -75.9 0 0 -75.92 75.9 0 0 75.81 75.86 0 0 -75.81 75.88 0 0 75.92 -75.88 0zm75.88 -75.92l0 -75.95 75.9 0 0 75.95 -75.9 0zm-379.42 -151.87l75.9 0 0 75.92 -75.9 0 0 -75.92zm455.32 0l75.88 0 0 75.92 -75.88 0 0 -75.92zm683.17 303.56l0 75.92 -75.86 0 0 -75.92 75.86 0zm-151.76 151.82l-75.84 0 0 -75.86 75.84 0 0 75.86zm-75.88 75.95l-75.84 0 0 -75.88 75.84 0 0 75.88zm151.78 -75.95l0 -75.9 -75.84 0 0 -75.9 -75.9 0 -75.88 0 -75.87 0 0 75.94 -75.86 0 0 75.93 -75.9 0 0 75.94 75.9 0 75.86 0 75.83 0 0 75.86 0 75.9 0 75.94 75.88 0 0 -75.94 75.88 0 0 -75.9 75.9 0 0 -75.92 0 -75.95zm151.74 -75.86l75.84 0 0 75.86 -75.84 0 0 -75.86zm75.9 75.93l75.82 0 0 75.88 -75.82 0 0 -75.88zm-75.94 -75.97l-75.84 0 0 75.9 0 75.95 0 75.92 75.88 0 0 75.9 75.9 0 0 75.94 75.88 0 0 -75.94 0 -75.9 0 -75.86 75.84 0 75.86 0 75.87 0 0 -75.94 -75.87 0 0 -75.93 -75.86 0 0 -75.94 -75.9 0 -75.88 0 -75.88 0 0 75.9zm0.04 -303.6l75.84 0 0 75.88 -75.84 0 0 -75.88zm75.9 -75.92l75.82 0 0 75.86 -75.82 0 0 -75.86zm-303.54 151.8l-75.84 0 0 -75.88 75.84 0 0 75.88zm-75.88 -75.94l-75.84 0 0 -75.86 75.84 0 0 75.86zm227.64 151.8l0 75.94 75.88 0 0 -75.88 75.84 0 75.88 0 75.9 0 0 -75.92 75.86 0 0 -75.94 75.87 0 0 -75.93 -75.87 0 -75.86 0 -75.84 0 0 -75.85 0 -75.95 0 -75.9 -75.88 0 0 75.9 -75.9 0 0 75.95 -75.88 0 0 75.92 0 75.92 0 75.82 -75.86 0 0 -75.82 0 -75.92 0 -75.92 -75.9 0 0 -75.95 -75.88 0 0 -75.9 -75.88 0 0 75.9 0 75.95 0 75.85 -75.83 0 -75.86 0 -75.9 0 0 75.93 75.9 0 0 75.94 75.86 0 0 75.92 75.87 0 75.88 0 75.84 0 0 75.88 75.9 0 0 -75.94 -75.84 0 0 -75.82 75.84 0 0 75.82 75.86 0 0 -75.82 75.84 0 0 75.82 -75.84 0zm986.73 227.83l-75.9 0 0 -75.93 75.9 0 0 75.93zm-379.42 0l0 -75.93 75.88 0 0 75.93 -75.88 0zm455.3 75.94l-75.88 0 0 -75.94 75.88 0 0 75.94zm-531.18 0l0 -75.94 75.88 0 0 75.94 -75.88 0zm227.66 -75.94l75.86 0 0 75.94 75.88 0 0 75.9 -75.88 0 0 75.94 -75.86 0 0 -75.94 -75.9 0 0 -75.9 75.9 0 0 -75.94zm75.86 -379.53l-75.86 0 0 -75.92 -75.9 0 0 -75.9 75.9 0 0 -75.94 75.86 0 0 75.94 75.88 0 0 75.9 -75.88 0 0 75.92zm303.47 227.75l0 75.92 -75.85 0 0 -75.92 -75.9 0 0 -75.95 75.9 0 0 -75.92 75.85 0 0 75.92 75.88 0 0 75.95 -75.88 0zm-606.95 -151.87l0 75.92 75.9 0 0 75.95 -75.9 0 0 75.92 -75.88 0 0 -75.92 -75.85 0 0 -75.95 75.85 0 0 -75.92 75.88 0zm75.84 -75.88l75.88 0 0 75.95 -75.88 0 0 -75.95zm227.64 151.87l0 75.83 75.88 0 0 75.9 -75.88 0 0 -75.79 -75.86 0 0 75.79 -75.9 0 0 -75.9 75.9 0 0 -75.83 -75.9 0 0 -75.92 75.9 0 0 75.81 75.86 0 0 -75.81 75.88 0 0 75.92 -75.88 0zm75.88 -75.92l0 -75.95 75.9 0 0 75.95 -75.9 0zm-379.4 -151.87l75.88 0 0 75.92 -75.88 0 0 -75.92zm455.3 0l75.88 0 0 75.92 -75.88 0 0 -75.92zm683.17 303.56l0 75.92 -75.86 0 0 -75.92 75.86 0zm-151.74 151.82l-75.84 0 0 -75.86 75.84 0 0 75.86zm-75.9 75.95l-75.84 0 0 -75.88 75.84 0 0 75.88zm151.78 -75.95l0 -75.9 -75.84 0 0 -75.9 -75.88 0 -75.9 0 -75.86 0 0 75.94 -75.88 0 0 75.93 -75.88 0 0 75.94 75.88 0 75.88 0 75.82 0 0 75.86 0 75.9 0 75.94 75.88 0 0 -75.94 75.9 0 0 -75.9 75.88 0 0 -75.92 0 -75.95zm151.76 -75.86l75.81 0 0 75.86 -75.81 0 0 -75.86zm75.88 75.93l75.83 0 0 75.88 -75.83 0 0 -75.88zm-75.95 -75.97l-75.83 0 0 75.9 0 75.95 0 75.92 75.9 0 0 75.9 75.88 0 0 75.94 75.88 0 0 -75.94 0 -75.9 0 -75.86 75.83 0 75.86 0 75.9 0 0 -75.94 -75.9 0 0 -75.93 -75.86 0 0 -75.94 -75.88 0 -75.9 0 -75.88 0 0 75.9zm0.07 -303.6l75.81 0 0 75.88 -75.81 0 0 -75.88zm75.88 -75.92l75.83 0 0 75.86 -75.83 0 0 -75.86zm-303.52 151.8l-75.84 0 0 -75.88 75.84 0 0 75.88zm-75.9 -75.94l-75.84 0 0 -75.86 75.84 0 0 75.86zm227.64 151.8l0 75.94 75.9 0 0 -75.88 75.81 0 75.9 0 75.88 0 0 -75.92 75.86 0 0 -75.94 75.9 0 0 -75.93 -75.9 0 -75.86 0 -75.83 0 0 -75.85 0 -75.95 0 -75.9 -75.88 0 0 75.9 -75.88 0 0 75.95 -75.9 0 0 75.92 0 75.92 0 75.82 -75.86 0 0 -75.82 0 -75.92 0 -75.92 -75.88 0 0 -75.95 -75.9 0 0 -75.9 -75.88 0 0 75.9 0 75.95 0 75.85 -75.82 0 -75.88 0 -75.88 0 0 75.93 75.88 0 0 75.94 75.88 0 0 75.92 75.86 0 75.9 0 75.84 0 0 75.88 75.88 0 0 -75.94 -75.84 0 0 -75.82 75.84 0 0 75.82 75.86 0 0 -75.82 75.83 0 0 75.82 -75.83 0zm986.73 227.83l-75.88 0 0 -75.93 75.88 0 0 75.93zm-379.42 0l0 -75.93 75.9 0 0 75.93 -75.9 0zm455.3 75.94l-75.88 0 0 -75.94 75.88 0 0 75.94zm-531.18 0l0 -75.94 75.88 0 0 75.94 -75.88 0zm227.66 -75.94l75.9 0 0 75.94 75.86 0 0 75.9 -75.86 0 0 75.94 -75.9 0 0 -75.94 -75.88 0 0 -75.9 75.88 0 0 -75.94zm75.9 -379.53l-75.9 0 0 -75.92 -75.88 0 0 -75.9 75.88 0 0 -75.94 75.9 0 0 75.94 75.86 0 0 75.9 -75.86 0 0 75.92zm303.45 227.75l0 75.92 -75.88 0 0 -75.92 -75.88 0 0 -75.95 75.88 0 0 -75.92 75.88 0 0 75.92 75.9 0 0 75.95 -75.9 0zm-606.95 -151.87l0 75.92 75.88 0 0 75.95 -75.88 0 0 75.92 -75.88 0 0 -75.92 -75.88 0 0 -75.95 75.88 0 0 -75.92 75.88 0zm75.82 -75.88l75.9 0 0 75.95 -75.9 0 0 -75.95zm227.68 151.87l0 75.83 75.86 0 0 75.9 -75.86 0 0 -75.79 -75.9 0 0 75.79 -75.88 0 0 -75.9 75.88 0 0 -75.83 -75.88 0 0 -75.92 75.88 0 0 75.81 75.9 0 0 -75.81 75.86 0 0 75.92 -75.86 0zm75.86 -75.92l0 -75.95 75.88 0 0 75.95 -75.88 0zm-379.42 -151.87l75.88 0 0 75.92 -75.88 0 0 -75.92zm455.3 0l75.88 0 0 75.92 -75.88 0 0 -75.92zm683.21 303.56l0 75.92 -75.9 0 0 -75.92 75.9 0zm-151.78 151.82l-75.84 0 0 -75.86 75.84 0 0 75.86zm-75.9 75.95l-75.8 0 0 -75.88 75.8 0 0 75.88zm151.78 -75.95l0 -75.9 -75.84 0 0 -75.9 -75.88 0 -75.86 0 -75.88 0 0 75.94 -75.9 0 0 75.93 -75.88 0 0 75.94 75.88 0 75.9 0 75.82 0 0 75.86 0 75.9 0 75.94 75.86 0 0 -75.94 75.9 0 0 -75.9 75.88 0 0 -75.92 0 -75.95zm151.76 -75.86l75.83 0 0 75.86 -75.83 0 0 -75.86zm75.88 75.93l75.83 0 0 75.88 -75.83 0 0 -75.88zm-75.95 -75.97l-75.79 0 0 75.9 0 75.95 0 75.92 75.86 0 0 75.9 75.88 0 0 75.94 75.9 0 0 -75.94 0 -75.9 0 -75.86 75.81 0 75.9 0 75.86 0 0 -75.94 -75.86 0 0 -75.93 -75.9 0 0 -75.94 -75.88 0 -75.88 0 -75.9 0 0 75.9zm0.07 -303.6l75.83 0 0 75.88 -75.83 0 0 -75.88zm75.88 -75.92l75.83 0 0 75.86 -75.83 0 0 -75.86zm-303.52 151.8l-75.84 0 0 -75.88 75.84 0 0 75.88zm-75.9 -75.94l-75.8 0 0 -75.86 75.8 0 0 75.86zm227.68 151.8l0 75.94 75.86 0 0 -75.88 75.83 0 75.88 0 75.88 0 0 -75.92 75.9 0 0 -75.94 75.86 0 0 -75.93 -75.86 0 -75.9 0 -75.81 0 0 -75.85 0 -75.95 0 -75.9 -75.9 0 0 75.9 -75.88 0 0 75.95 -75.86 0 0 75.92 0 75.92 0 75.82 -75.9 0 0 -75.82 0 -75.92 0 -75.92 -75.88 0 0 -75.95 -75.9 0 0 -75.9 -75.86 0 0 75.9 0 75.95 0 75.85 -75.82 0 -75.9 0 -75.88 0 0 75.93 75.88 0 0 75.94 75.9 0 0 75.92 75.88 0 75.86 0 75.84 0 0 75.88 75.88 0 0 -75.94 -75.84 0 0 -75.82 75.84 0 0 75.82 75.9 0 0 -75.82 75.79 0 0 75.82 -75.79 0zm986.68 227.83l-75.88 0 0 -75.93 75.88 0 0 75.93zm-379.39 0l0 -75.93 75.88 0 0 75.93 -75.88 0zm455.29 75.94l-75.9 0 0 -75.94 75.9 0 0 75.94zm-531.19 0l0 -75.94 75.9 0 0 75.94 -75.9 0zm227.68 -75.94l75.86 0 0 75.94 75.87 0 0 75.9 -75.87 0 0 75.94 -75.86 0 0 -75.94 -75.9 0 0 -75.9 75.9 0 0 -75.94zm75.86 -379.53l-75.86 0 0 -75.92 -75.9 0 0 -75.9 75.9 0 0 -75.94 75.86 0 0 75.94 75.87 0 0 75.9 -75.87 0 0 75.92zm303.49 227.75l0 75.92 -75.9 0 0 -75.92 -75.88 0 0 -75.95 75.88 0 0 -75.92 75.9 0 0 75.92 75.88 0 0 75.95 -75.88 0zm-606.97 -151.87l0 75.92 75.88 0 0 75.95 -75.88 0 0 75.92 -75.86 0 0 -75.92 -75.9 0 0 -75.95 75.9 0 0 -75.92 75.86 0zm75.84 -75.88l75.88 0 0 75.95 -75.88 0 0 -75.95zm227.64 151.87l0 75.83 75.87 0 0 75.9 -75.87 0 0 -75.79 -75.86 0 0 75.79 -75.9 0 0 -75.9 75.9 0 0 -75.83 -75.9 0 0 -75.92 75.9 0 0 75.81 75.86 0 0 -75.81 75.87 0 0 75.92 -75.87 0zm75.87 -75.92l0 -75.95 75.88 0 0 75.95 -75.88 0zm-379.41 -151.87l75.9 0 0 75.92 -75.9 0 0 -75.92zm455.29 0l75.9 0 0 75.92 -75.9 0 0 -75.92zm683.21 303.56l0 75.92 -75.87 0 0 -75.92 75.87 0zm-151.78 151.82l-75.83 0 0 -75.86 75.83 0 0 75.86zm-75.87 75.95l-75.82 0 0 -75.88 75.82 0 0 75.88zm151.78 -75.95l0 -75.9 -75.84 0 0 -75.9 -75.9 0 -75.86 0 -75.88 0 0 75.94 -75.88 0 0 75.93 -75.9 0 0 75.94 75.9 0 75.88 0 75.84 0 0 75.86 0 75.9 0 75.94 75.86 0 0 -75.94 75.87 0 0 -75.9 75.91 0 0 -75.92 0 -75.95zm151.75 -75.86l75.82 0 0 75.86 -75.82 0 0 -75.86zm75.86 134.41l0 -58.48 41.8 0 -41.8 58.48zm151.74 -204.11l0 -6.24 -75.9 0 -75.88 0 -75.86 0 0 75.9 -75.84 0 0 75.9 0 75.95 0 75.92 75.88 0 0 17.52 227.6 -314.95zm-227.6 -233.94l75.82 0 0 75.88 -75.82 0 0 -75.88zm75.86 -75.92l75.84 0 0 75.86 -75.84 0 0 -75.86zm-303.52 151.8l-75.83 0 0 -75.88 75.83 0 0 75.88zm-75.87 -75.94l-75.82 0 0 -75.86 75.82 0 0 75.86zm227.65 151.8l0 75.94 75.88 0 0 -75.88 75.82 0 75.88 0 75.9 0 0 -75.92 75.88 0 0 -75.94 75.9 0 0 -75.93 -75.9 0 -75.88 0 -75.84 0 0 -75.85 0 -75.95 0 -75.9 -75.9 0 0 75.9 -75.86 0 0 75.95 -75.88 0 0 75.92 0 75.92 0 75.82 -75.87 0 0 -75.82 0 -75.92 0 -75.92 -75.91 0 0 -75.95 -75.87 0 0 -75.9 -75.86 0 0 75.9 0 75.95 0 75.85 -75.84 0 -75.88 0 -75.9 0 0 75.93 75.9 0 0 75.94 75.88 0 0 75.92 75.88 0 75.86 0 75.83 0 0 75.88 75.91 0 0 -75.94 -75.84 0 0 -75.82 75.84 0 0 75.82 75.87 0 0 -75.82 75.84 0 0 75.82 -75.84 0zm-8270.98 -680.36l75.88 0 0 75.9 -75.88 0 0 -75.9zm-306.2 73.24l0 -75.92 78.56 2.68 -2.69 73.24 -75.87 0zm455.29 75.94l-73.21 2.66 0 -75.94 73.21 -2.66 0 75.94zm-528.49 2.66l-2.68 -78.6 75.88 0 2.68 78.6 -75.88 0zm300.83 -78.6l0 75.94 75.88 0 0 75.9 -75.88 0 0 75.92 -75.88 0 0 -75.92 -75.88 0 0 -75.9 75.88 0 0 -75.94 75.88 0zm227.6 -151.8l75.88 0 0 75.94 -75.88 0 0 -75.94zm-606.95 0l75.88 0 0 75.94 -75.88 0 0 -75.94zm1138.42 -0.07l75.9 0 0 75.9 -75.9 0 0 -75.9zm-75.88 151.8l-75.81 0 0 -75.85 75.81 0 0 75.85zm-75.88 75.93l-75.81 0 0 -75.86 75.81 0 0 75.86zm151.76 -75.93l0 -75.9 -75.81 0 0 -75.9 -75.88 0 -75.88 0 -75.88 0 0 75.95 -75.9 0 0 75.92 -75.88 0 0 75.94 75.88 0 75.9 0 75.81 0 0 75.86 0 75.9 0 75.94 75.88 0 0 -75.94 75.88 0 0 -75.9 75.88 0 0 -75.94 0 -75.93zm303.48 75.93l-75.82 0 0 -75.86 75.82 0 0 75.86zm-75.88 -75.93l-75.82 0 0 -75.85 75.82 0 0 75.85zm303.54 76.01l0 -75.94 -75.88 0 0 -75.92 -75.9 0 0 -75.95 -75.88 0 -75.88 0 -75.88 0 0 75.9 -75.82 0 0 75.9 0 75.93 0 75.94 75.88 0 0 75.9 75.88 0 0 75.94 75.88 0 0 -75.94 0 -75.9 0 -75.86 75.82 0 75.9 0 75.88 0zm-1439.28 -225.12l72.84 -2.69 0 70.24 0.35 0 0 5.71 -73.19 2.68 0 -75.94zm151.76 70.23l0 -70.13 0 -0.1 75.88 0 0 75.94 -75.88 0 0 -5.71zm1743.11 3.03l75.88 0 0 75.92 -75.88 0 0 -75.92zm-303.54 75.92l0 -75.92 75.9 0 0 75.92 -75.9 0zm455.3 75.94l-75.88 0 0 -75.94 75.88 0 0 75.94zm-528.49 2.66l0 -75.94 75.88 0 0 75.94 -75.88 0zm300.85 -78.6l0 75.94 75.88 0 0 75.9 -75.88 0 0 75.92 -75.88 0 0 -75.92 -75.88 0 0 -75.9 75.88 0 0 -75.94 75.88 0zm227.6 -151.8l75.88 0 0 75.94 -75.88 0 0 -75.94zm-606.95 0l75.88 0 0 75.94 -75.88 0 0 -75.94zm1138.4 -0.07l75.9 0 0 75.9 -75.9 0 0 -75.9zm-75.86 151.8l-75.83 0 0 -75.85 75.83 0 0 75.85zm-75.88 75.93l-75.83 0 0 -75.86 75.83 0 0 75.86zm151.74 -75.93l0 -75.9 -75.79 0 0 -75.9 -75.9 0 -75.88 0 -75.88 0 0 75.95 -75.88 0 0 75.92 -75.88 0 0 75.94 75.88 0 75.88 0 75.81 0 0 75.86 0 75.9 0 75.94 75.9 0 0 -75.94 75.88 0 0 -75.9 75.86 0 0 -75.94 0 -75.93zm303.5 75.93l-75.82 0 0 -75.86 75.82 0 0 75.86zm-75.88 -75.93l-75.84 0 0 -75.85 75.84 0 0 75.85zm303.52 76.01l0 -75.94 -75.88 0 0 -75.92 -75.9 0 0 -75.95 -75.86 0 -75.88 0 -75.88 0 0 75.9 -75.84 0 0 75.9 0 75.93 0 75.94 75.88 0 0 75.9 75.9 0 0 75.94 75.88 0 0 -75.94 0 -75.9 0 -75.86 75.8 0 75.9 0 75.88 0zm-1441.95 -227.81l75.52 0 0 70.24 0.36 0 0 5.71 -75.88 0 0 -75.95zm151.76 70.24l0 -70.13 0 -0.11 75.88 0 0 75.95 -75.88 0 0 -5.71zm1745.78 5.71l75.9 0 0 75.92 -75.9 0 0 -75.92zm-303.52 75.92l0 -75.92 75.88 0 0 75.92 -75.88 0zm455.3 75.94l-75.88 0 0 -75.94 75.88 0 0 75.94zm-531.18 0l0 -75.94 75.88 0 0 75.94 -75.88 0zm303.52 -75.94l0 75.94 75.88 0 0 75.9 -75.88 0 0 75.92 -75.86 0 0 -75.92 -75.9 0 0 -75.9 75.9 0 0 -75.94 75.86 0zm227.6 -151.8l75.9 0 0 75.94 -75.9 0 0 -75.94zm-606.95 0l75.87 0 0 75.94 -75.87 0 0 -75.94zm1138.44 -0.07l75.86 0 0 75.9 -75.86 0 0 -75.9zm-75.9 151.8l-75.82 0 0 -75.85 75.82 0 0 75.85zm-75.88 75.93l-75.84 0 0 -75.86 75.84 0 0 75.86zm151.78 -75.93l0 -75.9 -75.84 0 0 -75.9 -75.88 0 -75.9 0 -75.88 0 0 75.95 -75.85 0 0 75.92 -75.9 0 0 75.94 75.9 0 75.85 0 75.84 0 0 75.86 0 75.9 0 75.94 75.88 0 0 -75.94 75.88 0 0 -75.9 75.9 0 0 -75.94 0 -75.93zm303.48 75.93l-75.84 0 0 -75.86 75.84 0 0 75.86zm-75.9 -75.93l-75.84 0 0 -75.85 75.84 0 0 75.85zm303.51 76.01l0 -75.94 -75.88 0 0 -75.92 -75.85 0 0 -75.95 -75.88 0 -75.9 0 -75.88 0 0 75.9 -75.84 0 0 75.9 0 75.93 0 75.94 75.88 0 0 75.9 75.9 0 0 75.94 75.88 0 0 -75.94 0 -75.9 0 -75.86 75.84 0 75.85 0 75.88 0zm-1441.94 -227.81l75.52 0 0 70.24 0.38 0 0 5.71 -75.9 0 0 -75.95zm151.76 70.24l0 -70.13 0 -0.11 75.88 0 0 75.95 -75.88 0 0 -5.71zm1745.8 5.71l75.88 0 0 75.92 -75.88 0 0 -75.92zm-303.54 75.92l0 -75.92 75.9 0 0 75.92 -75.9 0zm455.3 75.94l-75.88 0 0 -75.94 75.88 0 0 75.94zm-531.18 0l0 -75.94 75.88 0 0 75.94 -75.88 0zm303.52 -75.94l0 75.94 75.9 0 0 75.9 -75.9 0 0 75.92 -75.86 0 0 -75.92 -75.88 0 0 -75.9 75.88 0 0 -75.94 75.86 0zm227.61 -151.8l75.88 0 0 75.94 -75.88 0 0 -75.94zm-606.95 0l75.86 0 0 75.94 -75.86 0 0 -75.94zm1138.43 -0.07l75.9 0 0 75.9 -75.9 0 0 -75.9zm-75.88 151.8l-75.84 0 0 -75.85 75.84 0 0 75.85zm-75.9 75.93l-75.8 0 0 -75.86 75.8 0 0 75.86zm151.78 -75.93l0 -75.9 -75.84 0 0 -75.9 -75.88 0 -75.86 0 -75.9 0 0 75.95 -75.88 0 0 75.92 -75.88 0 0 75.94 75.88 0 75.88 0 75.82 0 0 75.86 0 75.9 0 75.94 75.88 0 0 -75.94 75.9 0 0 -75.9 75.88 0 0 -75.94 0 -75.93zm303.47 75.93l-75.83 0 0 -75.86 75.83 0 0 75.86zm-75.88 -75.93l-75.81 0 0 -75.85 75.81 0 0 75.85zm303.52 76.01l0 -75.94 -75.86 0 0 -75.92 -75.9 0 0 -75.95 -75.88 0 -75.88 0 -75.88 0 0 75.9 -75.81 0 0 75.9 0 75.93 0 75.94 75.88 0 0 75.9 75.86 0 0 75.94 75.88 0 0 -75.94 0 -75.9 0 -75.86 75.83 0 75.9 0 75.86 0zm-1441.94 -227.81l75.54 0 0 70.24 0.34 0 0 5.71 -75.88 0 0 -75.95zm151.74 70.24l0 -70.13 0 -0.11 75.9 0 0 75.95 -75.9 0 0 -5.71zm1745.82 5.71l75.86 0 0 75.92 -75.86 0 0 -75.92zm-303.56 75.92l0 -75.92 75.9 0 0 75.92 -75.9 0zm455.32 75.94l-75.9 0 0 -75.94 75.9 0 0 75.94zm-531.18 0l0 -75.94 75.86 0 0 75.94 -75.86 0zm303.54 -75.94l0 75.94 75.88 0 0 75.9 -75.88 0 0 75.92 -75.9 0 0 -75.92 -75.88 0 0 -75.9 75.88 0 0 -75.94 75.9 0zm227.57 -151.8l75.88 0 0 75.94 -75.88 0 0 -75.94zm-606.93 0l75.88 0 0 75.94 -75.88 0 0 -75.94zm1138.43 -0.07l75.88 0 0 75.9 -75.88 0 0 -75.9zm-75.9 151.8l-75.84 0 0 -75.85 75.84 0 0 75.85zm-75.88 75.93l-75.84 0 0 -75.86 75.84 0 0 75.86zm151.78 -75.93l0 -75.9 -75.84 0 0 -75.9 -75.9 0 -75.88 0 -75.86 0 0 75.95 -75.9 0 0 75.92 -75.88 0 0 75.94 75.88 0 75.9 0 75.8 0 0 75.86 0 75.9 0 75.94 75.9 0 0 -75.94 75.88 0 0 -75.9 75.9 0 0 -75.94 0 -75.93zm303.45 75.93l-75.84 0 0 -75.86 75.84 0 0 75.86zm-75.88 -75.93l-75.84 0 0 -75.85 75.84 0 0 75.85zm303.54 76.01l0 -75.94 -75.88 0 0 -75.92 -75.88 0 0 -75.95 -75.9 0 -75.88 0 -75.88 0 0 75.9 -75.81 0 0 75.9 0 75.93 0 75.94 75.85 0 0 75.9 75.88 0 0 75.94 75.9 0 0 -75.94 0 -75.9 0 -75.86 75.84 0 75.88 0 75.88 0zm-1441.96 -227.81l75.54 0 0 70.24 0.34 0 0 5.71 -75.88 0 0 -75.95zm151.78 70.24l0 -70.13 0 -0.11 75.88 0 0 75.95 -75.88 0 0 -5.71zm1745.77 5.71l75.86 0 0 75.92 -75.86 0 0 -75.92zm-303.53 75.92l0 -75.92 75.87 0 0 75.92 -75.87 0zm455.29 75.94l-75.9 0 0 -75.94 75.9 0 0 75.94zm-531.15 0l0 -75.94 75.86 0 0 75.94 -75.86 0zm303.51 -75.94l0 75.94 75.88 0 0 75.9 -75.88 0 0 75.92 -75.87 0 0 -75.92 -75.91 0 0 -75.9 75.91 0 0 -75.94 75.87 0zm227.58 -151.8l75.9 0 0 75.94 -75.9 0 0 -75.94zm-606.93 0l75.88 0 0 75.94 -75.88 0 0 -75.94zm1138.42 -0.07l75.88 0 0 75.9 -75.88 0 0 -75.9zm-75.9 151.8l-75.79 0 0 -75.85 75.79 0 0 75.85zm-75.85 75.93l-75.84 0 0 -75.86 75.84 0 0 75.86zm151.75 -75.93l0 -75.9 -75.83 0 0 -75.9 -75.86 0 -75.9 0 -75.88 0 0 75.95 -75.88 0 0 75.92 -75.9 0 0 75.94 75.9 0 75.88 0 75.84 0 0 75.86 0 75.9 0 75.94 75.88 0 0 -75.94 75.85 0 0 -75.9 75.9 0 0 -75.94 0 -75.93zm-910.85 -151.8l75.55 0 0 70.24 0.36 0 0 5.71 -75.91 0 0 -75.95zm151.78 70.24l0 -70.13 0 -0.11 75.88 0 0 75.95 -75.88 0 0 -5.71zm-8881.02 64.46c43.91,35.94 81.02,66.98 111.29,93.11l40.47 0 0 -75.94 -75.88 0 0 -75.92 -75.88 0 0 58.75zm9867.75 21.12l0 -3.95 5.14 0 -5.14 3.95zm-0.06 -4.02l-75.84 0 0 -75.85 75.84 0 0 75.85zm151.76 -106.34l0 -45.46 -75.9 0 -75.86 0 -75.88 0 0 75.9 -75.84 0 0 75.9 0 75.93 0 52.11 303.48 -234.38z"/>
   </g>
  </g>
 </g>
</svg>
